<?xml version="1.0" encoding="UTF-8" standalone="no"?>
<!DOCTYPE svg PUBLIC "-//W3C//DTD SVG 1.1//EN"
 "http://www.w3.org/Graphics/SVG/1.1/DTD/svg11.dtd">
<!-- Generated by graphviz version 2.38.0 (20140413.2041)
 -->
<!-- Title: G Pages: 1 -->
<svg width="169pt" height="597pt"
 viewBox="0.00 0.00 168.73 597.00" xmlns="http://www.w3.org/2000/svg" xmlns:xlink="http://www.w3.org/1999/xlink">
<g id="graph0" class="graph" transform="scale(1 1) rotate(0) translate(4 593)">
<title>G</title>
<polygon fill="white" stroke="none" points="-4,4 -4,-593 164.734,-593 164.734,4 -4,4"/>
<!-- A0 -->
<g id="node1" class="node"><title>A0</title>
<ellipse fill="none" stroke="black" cx="69.5545" cy="-578" rx="11" ry="11"/>
</g>
<!-- A1 -->
<g id="node2" class="node"><title>A1</title>
<polygon fill="none" stroke="black" points="69.5545,-530 51.5545,-512 69.5545,-494 87.5545,-512 69.5545,-530"/>
</g>
<!-- A0&#45;&gt;A1 -->
<g id="edge1" class="edge"><title>A0&#45;&gt;A1</title>
<path fill="none" stroke="black" d="M69.5545,-567C69.5545,-559.848 69.5545,-549.854 69.5545,-540.406"/>
<polygon fill="black" stroke="black" points="69.5545,-530.151 74.0546,-540.151 69.5545,-535.151 69.5546,-540.151 69.5546,-540.151 69.5546,-540.151 69.5545,-535.151 65.0546,-540.151 69.5545,-530.151 69.5545,-530.151"/>
</g>
<!-- A2 -->
<g id="node3" class="node"><title>A2</title>
<path fill="none" stroke="black" d="M12,-409.5C12,-409.5 57.109,-409.5 57.109,-409.5 63.109,-409.5 69.109,-415.5 69.109,-421.5 69.109,-421.5 69.109,-433.5 69.109,-433.5 69.109,-439.5 63.109,-445.5 57.109,-445.5 57.109,-445.5 12,-445.5 12,-445.5 6,-445.5 0,-439.5 0,-433.5 0,-433.5 0,-421.5 0,-421.5 0,-415.5 6,-409.5 12,-409.5"/>
<text text-anchor="middle" x="34.5545" y="-424.5" font-family="Helvetica,sans-Serif" font-size="10.00">Fill Kettle</text>
</g>
<!-- A1&#45;&gt;A2 -->
<g id="edge2" class="edge"><title>A1&#45;&gt;A2</title>
<path fill="none" stroke="black" d="M58.9814,-504.439C50.198,-498.307 38.3256,-488.269 33.0965,-476 30.4641,-469.824 29.6526,-462.775 29.7703,-456.031"/>
<polygon fill="black" stroke="black" points="30.5919,-445.856 34.2723,-456.186 30.1894,-450.84 29.7869,-455.824 29.7869,-455.824 29.7869,-455.824 30.1894,-450.84 25.3015,-455.462 30.5919,-445.856 30.5919,-445.856"/>
<text text-anchor="middle" x="63.2835" y="-467" font-family="Helvetica,sans-Serif" font-size="10.00">[kettle empty]</text>
</g>
<!-- A3 -->
<g id="node4" class="node"><title>A3</title>
<polygon fill="lightgrey" stroke="black" stroke-width="4" points="64.5545,-367.5 64.5545,-371.5 100.555,-371.5 100.555,-367.5 64.5545,-367.5"/>
<text text-anchor="middle" x="73.1934" y="-369.2" font-family="Helvetica,sans-Serif" font-size="1.00"> </text>
<polyline fill="none" stroke="black" stroke-width="4" points="81.8324,-367.5 81.8324,-371.5 "/>
<text text-anchor="middle" x="90.9714" y="-369.2" font-family="Helvetica,sans-Serif" font-size="1.00"> </text>
</g>
<!-- A1&#45;&gt;A3 -->
<g id="edge4" class="edge"><title>A1&#45;&gt;A3:f2:n</title>
<path fill="none" stroke="black" d="M77.6449,-501.961C83.0318,-495.306 89.637,-485.752 92.5545,-476 94.0831,-470.89 92.6125,-469.333 92.5545,-464 92.15,-426.778 90.825,-414.98 90.5902,-382.325"/>
<polygon fill="black" stroke="black" points="90.5545,-372 95.0892,-381.984 90.5719,-377 90.5892,-382 90.5892,-382 90.5892,-382 90.5719,-377 86.0892,-382.016 90.5545,-372 90.5545,-372"/>
<text text-anchor="middle" x="115.058" y="-424.5" font-family="Helvetica,sans-Serif" font-size="10.00">[kettle full]</text>
</g>
<!-- A2&#45;&gt;A3 -->
<g id="edge3" class="edge"><title>A2&#45;&gt;A3:f1:n</title>
<path fill="none" stroke="black" d="M54.9683,-409.48C62.1928,-401.965 69.2497,-392.444 72.1607,-381.919"/>
<polygon fill="black" stroke="black" points="73.5545,-372 76.6192,-382.529 72.8587,-376.951 72.163,-381.903 72.163,-381.903 72.163,-381.903 72.8587,-376.951 67.7068,-381.277 73.5545,-372 73.5545,-372"/>
</g>
<!-- A4 -->
<g id="node5" class="node"><title>A4</title>
<path fill="none" stroke="black" d="M27.05,-238.5C27.05,-238.5 76.059,-238.5 76.059,-238.5 82.059,-238.5 88.059,-244.5 88.059,-250.5 88.059,-250.5 88.059,-262.5 88.059,-262.5 88.059,-268.5 82.059,-274.5 76.059,-274.5 76.059,-274.5 27.05,-274.5 27.05,-274.5 21.05,-274.5 15.05,-268.5 15.05,-262.5 15.05,-262.5 15.05,-250.5 15.05,-250.5 15.05,-244.5 21.05,-238.5 27.05,-238.5"/>
<text text-anchor="middle" x="51.5545" y="-253.5" font-family="Helvetica,sans-Serif" font-size="10.00">Boil Kettle</text>
</g>
<!-- A3&#45;&gt;A4 -->
<g id="edge5" class="edge"><title>A3&#45;&gt;A4</title>
<path fill="none" stroke="black" d="M81.9253,-367.34C79.4596,-362.748 70.3553,-345.341 65.5545,-330 60.9928,-315.423 57.6447,-298.71 55.3687,-285.007"/>
<polygon fill="black" stroke="black" points="53.7704,-274.761 59.758,-283.948 54.5411,-279.701 55.3117,-284.642 55.3117,-284.642 55.3117,-284.642 54.5411,-279.701 50.8655,-285.335 53.7704,-274.761 53.7704,-274.761"/>
</g>
<!-- A6 -->
<g id="node7" class="node"><title>A6</title>
<path fill="none" stroke="black" d="M86.375,-293.5C86.375,-293.5 148.734,-293.5 148.734,-293.5 154.734,-293.5 160.734,-299.5 160.734,-305.5 160.734,-305.5 160.734,-317.5 160.734,-317.5 160.734,-323.5 154.734,-329.5 148.734,-329.5 148.734,-329.5 86.375,-329.5 86.375,-329.5 80.375,-329.5 74.375,-323.5 74.375,-317.5 74.375,-317.5 74.375,-305.5 74.375,-305.5 74.375,-299.5 80.375,-293.5 86.375,-293.5"/>
<text text-anchor="middle" x="117.555" y="-308.5" font-family="Helvetica,sans-Serif" font-size="10.00">Add Tea Bag</text>
</g>
<!-- A3&#45;&gt;A6 -->
<g id="edge7" class="edge"><title>A3&#45;&gt;A6</title>
<path fill="none" stroke="black" d="M83.4197,-367.116C85.9948,-362.996 93.9014,-350.345 101.457,-338.256"/>
<polygon fill="black" stroke="black" points="106.815,-329.682 105.331,-340.547 104.165,-333.922 101.515,-338.162 101.515,-338.162 101.515,-338.162 104.165,-333.922 97.6995,-335.777 106.815,-329.682 106.815,-329.682"/>
</g>
<!-- A5 -->
<g id="node6" class="node"><title>A5</title>
<polygon fill="lightgrey" stroke="black" stroke-width="4" points="56.5545,-141.5 56.5545,-145.5 92.5545,-145.5 92.5545,-141.5 56.5545,-141.5"/>
<text text-anchor="middle" x="65.1934" y="-143.2" font-family="Helvetica,sans-Serif" font-size="1.00"> </text>
<polyline fill="none" stroke="black" stroke-width="4" points="73.8324,-141.5 73.8324,-145.5 "/>
<text text-anchor="middle" x="82.9714" y="-143.2" font-family="Helvetica,sans-Serif" font-size="1.00"> </text>
</g>
<!-- A4&#45;&gt;A5 -->
<g id="edge6" class="edge"><title>A4&#45;&gt;A5:f1:n</title>
<path fill="none" stroke="black" d="M55.1598,-238.14C58.8867,-218.806 64.3073,-186.292 65.3699,-156.12"/>
<polygon fill="black" stroke="black" points="65.5545,-146 69.8713,-156.08 65.4633,-150.999 65.3721,-155.998 65.3721,-155.998 65.3721,-155.998 65.4633,-150.999 60.8728,-155.916 65.5545,-146 65.5545,-146"/>
</g>
<!-- A8 -->
<g id="node9" class="node"><title>A8</title>
<path fill="none" stroke="black" d="M47.2745,-67.5C47.2745,-67.5 101.834,-67.5 101.834,-67.5 107.834,-67.5 113.834,-73.5 113.834,-79.5 113.834,-79.5 113.834,-91.5 113.834,-91.5 113.834,-97.5 107.834,-103.5 101.834,-103.5 101.834,-103.5 47.2745,-103.5 47.2745,-103.5 41.2745,-103.5 35.2745,-97.5 35.2745,-91.5 35.2745,-91.5 35.2745,-79.5 35.2745,-79.5 35.2745,-73.5 41.2745,-67.5 47.2745,-67.5"/>
<text text-anchor="middle" x="74.5545" y="-82.5" font-family="Helvetica,sans-Serif" font-size="10.00">Pour Water</text>
</g>
<!-- A5&#45;&gt;A8 -->
<g id="edge10" class="edge"><title>A5&#45;&gt;A8</title>
<path fill="none" stroke="black" d="M74.5545,-141.116C74.5545,-137.196 74.5545,-125.553 74.5545,-114.019"/>
<polygon fill="black" stroke="black" points="74.5545,-103.682 79.0546,-113.682 74.5545,-108.682 74.5546,-113.682 74.5546,-113.682 74.5546,-113.682 74.5545,-108.682 70.0546,-113.682 74.5545,-103.682 74.5545,-103.682"/>
</g>
<!-- A7 -->
<g id="node8" class="node"><title>A7</title>
<path fill="none" stroke="black" d="M93.388,-183.5C93.388,-183.5 135.721,-183.5 135.721,-183.5 141.721,-183.5 147.721,-189.5 147.721,-195.5 147.721,-195.5 147.721,-207.5 147.721,-207.5 147.721,-213.5 141.721,-219.5 135.721,-219.5 135.721,-219.5 93.388,-219.5 93.388,-219.5 87.388,-219.5 81.388,-213.5 81.388,-207.5 81.388,-207.5 81.388,-195.5 81.388,-195.5 81.388,-189.5 87.388,-183.5 93.388,-183.5"/>
<text text-anchor="middle" x="114.555" y="-198.5" font-family="Helvetica,sans-Serif" font-size="10.00">Add Milk</text>
</g>
<!-- A6&#45;&gt;A7 -->
<g id="edge8" class="edge"><title>A6&#45;&gt;A7</title>
<path fill="none" stroke="black" d="M117.072,-293.148C116.598,-276.064 115.866,-249.715 115.313,-229.819"/>
<polygon fill="black" stroke="black" points="115.035,-219.809 119.811,-229.68 115.174,-224.807 115.313,-229.805 115.313,-229.805 115.313,-229.805 115.174,-224.807 110.815,-229.93 115.035,-219.809 115.035,-219.809"/>
</g>
<!-- A7&#45;&gt;A5 -->
<g id="edge9" class="edge"><title>A7&#45;&gt;A5:f2:n</title>
<path fill="none" stroke="black" d="M98.1795,-183.307C92.2132,-175.681 86.3165,-166.128 83.8102,-155.931"/>
<polygon fill="black" stroke="black" points="82.5545,-146 88.2734,-155.357 83.1817,-150.961 83.809,-155.921 83.809,-155.921 83.809,-155.921 83.1817,-150.961 79.3445,-156.486 82.5545,-146 82.5545,-146"/>
</g>
<!-- A9 -->
<g id="node10" class="node"><title>A9</title>
<ellipse fill="none" stroke="black" cx="74.5545" cy="-15" rx="11" ry="11"/>
<ellipse fill="none" stroke="black" cx="74.5545" cy="-15" rx="15" ry="15"/>
</g>
<!-- A8&#45;&gt;A9 -->
<g id="edge11" class="edge"><title>A8&#45;&gt;A9</title>
<path fill="none" stroke="black" d="M74.5545,-67.2146C74.5545,-59.0995 74.5545,-49.2846 74.5545,-40.4271"/>
<polygon fill="black" stroke="black" points="74.5545,-30.2765 79.0546,-40.2764 74.5545,-35.2765 74.5546,-40.2765 74.5546,-40.2765 74.5546,-40.2765 74.5545,-35.2765 70.0546,-40.2765 74.5545,-30.2765 74.5545,-30.2765"/>
</g>
</g>
</svg>
