<?xml version="1.0" encoding="UTF-8" standalone="no"?>
<!DOCTYPE svg PUBLIC "-//W3C//DTD SVG 1.1//EN"
 "http://www.w3.org/Graphics/SVG/1.1/DTD/svg11.dtd">
<!-- Generated by graphviz version 2.38.0 (20140413.2041)
 -->
<!-- Title: G Pages: 1 -->
<svg width="1026pt" height="602pt"
 viewBox="0.00 0.00 1025.99 602.00" xmlns="http://www.w3.org/2000/svg" xmlns:xlink="http://www.w3.org/1999/xlink">
<g id="graph0" class="graph" transform="scale(1 1) rotate(0) translate(4 598)">
<title>G</title>
<polygon fill="white" stroke="none" points="-4,4 -4,-598 1021.99,-598 1021.99,4 -4,4"/>
<!-- A0 -->
<g id="node1" class="node"><title>A0</title>
<g transform="translate(58.7285,-275)" style="fill:none;stroke:black;stroke-width:1px"><circle cx="0" cy="-20" r="7.5" />
                <line x1="0" y1="-12.5" x2="0" y2="5" />
                <line x1="-15" y1="-5" x2="15" y2="-5" />
                <line x1="0" y1="5" x2="-15" y2="17" />
                <line x1="0" y1="5" x2="15" y2="17" /></g>
<text text-anchor="middle" x="58.7285" y="-250" font-family="Helvetica,sans-Serif" font-size="10.00">Administrator</text>
</g>
<!-- A1 -->
<g id="node2" class="node"><title>A1</title>
<ellipse fill="none" stroke="black" cx="301.629" cy="-356" rx="71.8253" ry="22.7556"/>
<text text-anchor="middle" x="301.629" y="-359" font-family="Helvetica,sans-Serif" font-size="10.00">Send Email Test</text>
<text text-anchor="middle" x="301.629" y="-347" font-family="Helvetica,sans-Serif" font-size="10.00">Page</text>
</g>
<!-- A0&#45;&gt;A1 -->
<g id="edge1" class="edge"><title>A0&#45;&gt;A1</title>
<path fill="none" stroke="black" d="M117.737,-296.782C155.055,-308.865 203.426,-324.527 241.049,-336.709"/>
<polygon fill="none" stroke="black" points="240.27,-340.136 250.862,-339.886 242.427,-333.476 240.27,-340.136"/>
</g>
<!-- A2 -->
<g id="node3" class="node"><title>A2</title>
<ellipse fill="none" stroke="black" cx="301.629" cy="-297" rx="70.0994" ry="18"/>
<text text-anchor="middle" x="301.629" y="-294" font-family="Helvetica,sans-Serif" font-size="10.00">Password Hash tool</text>
</g>
<!-- A0&#45;&gt;A2 -->
<g id="edge2" class="edge"><title>A0&#45;&gt;A2</title>
<path fill="none" stroke="black" d="M117.737,-282.575C149.669,-285.094 189.693,-288.25 224.153,-290.968"/>
<polygon fill="none" stroke="black" points="223.937,-294.462 234.181,-291.759 224.487,-287.484 223.937,-294.462"/>
</g>
<!-- A3 -->
<g id="node4" class="node"><title>A3</title>
<ellipse fill="none" stroke="black" cx="301.629" cy="-243" rx="72.7979" ry="18"/>
<text text-anchor="middle" x="301.629" y="-240" font-family="Helvetica,sans-Serif" font-size="10.00">Admin Landing Page</text>
</g>
<!-- A0&#45;&gt;A3 -->
<g id="edge3" class="edge"><title>A0&#45;&gt;A3</title>
<path fill="none" stroke="black" d="M117.737,-269.572C150.936,-264.749 192.883,-258.654 228.228,-253.519"/>
<polygon fill="none" stroke="black" points="229.094,-256.93 238.487,-252.028 228.087,-250.003 229.094,-256.93"/>
</g>
<!-- A4 -->
<g id="node5" class="node"><title>A4</title>
<ellipse fill="none" stroke="black" cx="301.629" cy="-141" rx="79.2833" ry="22.7556"/>
<text text-anchor="middle" x="301.629" y="-144" font-family="Helvetica,sans-Serif" font-size="10.00">Candidate Landing</text>
<text text-anchor="middle" x="301.629" y="-132" font-family="Helvetica,sans-Serif" font-size="10.00">Page</text>
</g>
<!-- A0&#45;&gt;A4 -->
<g id="edge4" class="edge"><title>A0&#45;&gt;A4</title>
<path fill="none" stroke="black" stroke-dasharray="5,2" d="M117.737,-245.011C160.27,-220.822 217.162,-188.467 256.134,-166.304"/>
<polygon fill="black" stroke="black" points="265.145,-161.18 258.677,-170.035 260.798,-163.652 256.452,-166.123 256.452,-166.123 256.452,-166.123 260.798,-163.652 254.227,-162.212 265.145,-161.18 265.145,-161.18"/>
<text text-anchor="middle" x="169.972" y="-233" font-family="Helvetica,sans-Serif" font-size="10.00">&lt;&lt;include&gt;&gt;</text>
</g>
<!-- A5 -->
<g id="node6" class="node"><title>A5</title>
<ellipse fill="none" stroke="black" cx="506.189" cy="-377" rx="50.0076" ry="18"/>
<text text-anchor="middle" x="506.189" y="-374" font-family="Helvetica,sans-Serif" font-size="10.00">Admin Login</text>
</g>
<!-- A3&#45;&gt;A5 -->
<g id="edge5" class="edge"><title>A3&#45;&gt;A5</title>
<path fill="none" stroke="black" d="M350.581,-256.363C360.864,-260.099 371.436,-264.637 380.77,-270 420.224,-292.667 458.877,-328.699 482.371,-352.597"/>
<polygon fill="none" stroke="black" points="479.974,-355.153 489.448,-359.897 485,-350.281 479.974,-355.153"/>
</g>
<!-- A15 -->
<g id="node16" class="node"><title>A15</title>
<ellipse fill="none" stroke="black" cx="506.189" cy="-192" rx="74.3376" ry="22.7556"/>
<text text-anchor="middle" x="506.189" y="-195" font-family="Helvetica,sans-Serif" font-size="10.00">Candidate Forgot</text>
<text text-anchor="middle" x="506.189" y="-183" font-family="Helvetica,sans-Serif" font-size="10.00">Password</text>
</g>
<!-- A4&#45;&gt;A15 -->
<g id="edge16" class="edge"><title>A4&#45;&gt;A15</title>
<path fill="none" stroke="black" d="M361.489,-155.82C385.62,-161.895 413.671,-168.958 438.551,-175.222"/>
<polygon fill="none" stroke="black" points="437.723,-178.623 448.275,-177.67 439.432,-171.835 437.723,-178.623"/>
</g>
<!-- A17 -->
<g id="node18" class="node"><title>A17</title>
<ellipse fill="none" stroke="black" cx="506.189" cy="-95" rx="60.7359" ry="18"/>
<text text-anchor="middle" x="506.189" y="-92" font-family="Helvetica,sans-Serif" font-size="10.00">Candidate Login</text>
</g>
<!-- A4&#45;&gt;A17 -->
<g id="edge19" class="edge"><title>A4&#45;&gt;A17</title>
<path fill="none" stroke="black" d="M364.228,-127.011C390.636,-121.014 421.32,-114.046 447.304,-108.145"/>
<polygon fill="none" stroke="black" points="448.405,-111.484 457.382,-105.857 446.855,-104.658 448.405,-111.484"/>
</g>
<!-- A6 -->
<g id="node7" class="node"><title>A6</title>
<ellipse fill="none" stroke="black" cx="713.884" cy="-576" rx="64.7325" ry="18"/>
<text text-anchor="middle" x="713.884" y="-573" font-family="Helvetica,sans-Serif" font-size="10.00">Add Administrator</text>
</g>
<!-- A5&#45;&gt;A6 -->
<g id="edge6" class="edge"><title>A5&#45;&gt;A6</title>
<path fill="none" stroke="black" d="M515.401,-394.94C532.227,-429.747 573.947,-506.725 631.608,-549 638.172,-553.813 645.645,-557.802 653.338,-561.099"/>
<polygon fill="none" stroke="black" points="652.197,-564.411 662.786,-564.788 654.743,-557.89 652.197,-564.411"/>
</g>
<!-- A7 -->
<g id="node8" class="node"><title>A7</title>
<ellipse fill="none" stroke="black" cx="713.884" cy="-517" rx="64.9493" ry="22.7556"/>
<text text-anchor="middle" x="713.884" y="-520" font-family="Helvetica,sans-Serif" font-size="10.00">Display</text>
<text text-anchor="middle" x="713.884" y="-508" font-family="Helvetica,sans-Serif" font-size="10.00">Administrators</text>
</g>
<!-- A5&#45;&gt;A7 -->
<g id="edge7" class="edge"><title>A5&#45;&gt;A7</title>
<path fill="none" stroke="black" d="M523.053,-394.009C545.41,-417.173 588.314,-458.755 631.608,-485 639.417,-489.734 648.049,-494.012 656.686,-497.785"/>
<polygon fill="none" stroke="black" points="655.443,-501.059 666.02,-501.68 658.139,-494.599 655.443,-501.059"/>
</g>
<!-- A8 -->
<g id="node9" class="node"><title>A8</title>
<ellipse fill="none" stroke="black" cx="713.884" cy="-458" rx="56.7165" ry="18"/>
<text text-anchor="middle" x="713.884" y="-455" font-family="Helvetica,sans-Serif" font-size="10.00">Add Candidate</text>
</g>
<!-- A5&#45;&gt;A8 -->
<g id="edge8" class="edge"><title>A5&#45;&gt;A8</title>
<path fill="none" stroke="black" d="M537.555,-391.08C562.557,-402.453 599.055,-418.557 631.608,-431 641.816,-434.902 652.862,-438.789 663.423,-442.348"/>
<polygon fill="none" stroke="black" points="662.355,-445.681 672.948,-445.515 664.564,-439.039 662.355,-445.681"/>
</g>
<!-- A10 -->
<g id="node11" class="node"><title>A10</title>
<ellipse fill="none" stroke="black" cx="713.884" cy="-404" rx="67.7592" ry="18"/>
<text text-anchor="middle" x="713.884" y="-401" font-family="Helvetica,sans-Serif" font-size="10.00">display Candidates</text>
</g>
<!-- A5&#45;&gt;A10 -->
<g id="edge10" class="edge"><title>A5&#45;&gt;A10</title>
<path fill="none" stroke="black" d="M553.607,-383.093C579.894,-386.543 613.303,-390.929 642.728,-394.791"/>
<polygon fill="none" stroke="black" points="642.581,-398.302 652.952,-396.133 643.493,-391.361 642.581,-398.302"/>
</g>
<!-- A11 -->
<g id="node12" class="node"><title>A11</title>
<ellipse fill="none" stroke="black" cx="713.884" cy="-350" rx="56.0461" ry="18"/>
<text text-anchor="middle" x="713.884" y="-347" font-family="Helvetica,sans-Serif" font-size="10.00">Add Questions</text>
</g>
<!-- A5&#45;&gt;A11 -->
<g id="edge11" class="edge"><title>A5&#45;&gt;A11</title>
<path fill="none" stroke="black" d="M553.607,-370.907C582.582,-367.104 620.213,-362.164 651.621,-358.042"/>
<polygon fill="none" stroke="black" points="652.121,-361.506 661.581,-356.734 651.21,-354.565 652.121,-361.506"/>
</g>
<!-- A12 -->
<g id="node13" class="node"><title>A12</title>
<ellipse fill="none" stroke="black" cx="713.884" cy="-296" rx="64.0751" ry="18"/>
<text text-anchor="middle" x="713.884" y="-293" font-family="Helvetica,sans-Serif" font-size="10.00">display Questions</text>
</g>
<!-- A5&#45;&gt;A12 -->
<g id="edge12" class="edge"><title>A5&#45;&gt;A12</title>
<path fill="none" stroke="black" d="M537.555,-362.92C562.557,-351.547 599.055,-335.443 631.608,-323 640.982,-319.417 651.064,-315.846 660.828,-312.53"/>
<polygon fill="none" stroke="black" points="662.077,-315.803 670.448,-309.308 659.854,-309.165 662.077,-315.803"/>
</g>
<!-- A13 -->
<g id="node14" class="node"><title>A13</title>
<ellipse fill="none" stroke="black" cx="713.884" cy="-242" rx="53.8657" ry="18"/>
<text text-anchor="middle" x="713.884" y="-239" font-family="Helvetica,sans-Serif" font-size="10.00">Admin Logout</text>
</g>
<!-- A5&#45;&gt;A13 -->
<g id="edge13" class="edge"><title>A5&#45;&gt;A13</title>
<path fill="none" stroke="black" d="M522.854,-359.652C544.979,-336.095 587.617,-294.059 631.608,-269 640.615,-263.869 650.744,-259.53 660.716,-255.933"/>
<polygon fill="none" stroke="black" points="661.849,-259.245 670.187,-252.709 659.593,-252.618 661.849,-259.245"/>
</g>
<!-- A9 -->
<g id="node10" class="node"><title>A9</title>
<ellipse fill="none" stroke="black" cx="932.573" cy="-458" rx="68.8392" ry="22.7556"/>
<text text-anchor="middle" x="932.573" y="-461" font-family="Helvetica,sans-Serif" font-size="10.00">Send Activation</text>
<text text-anchor="middle" x="932.573" y="-449" font-family="Helvetica,sans-Serif" font-size="10.00">Email</text>
</g>
<!-- A8&#45;&gt;A9 -->
<g id="edge9" class="edge"><title>A8&#45;&gt;A9</title>
<path fill="none" stroke="black" d="M770.686,-458C795.816,-458 825.921,-458 853.257,-458"/>
<polygon fill="none" stroke="black" points="853.582,-461.5 863.582,-458 853.582,-454.5 853.582,-461.5"/>
</g>
<!-- A13&#45;&gt;A3 -->
<g id="edge14" class="edge"><title>A13&#45;&gt;A3</title>
<path fill="none" stroke="black" d="M659.662,-242.13C589.785,-242.3 466.409,-242.601 384.575,-242.8"/>
<polygon fill="none" stroke="black" points="384.55,-239.3 374.559,-242.825 384.567,-246.3 384.55,-239.3"/>
</g>
<!-- A14 -->
<g id="node15" class="node"><title>A14</title>
<g transform="translate(58.7285,-138)" style="fill:none;stroke:black;stroke-width:1px"><circle cx="0" cy="-20" r="7.5" />
                <line x1="0" y1="-12.5" x2="0" y2="5" />
                <line x1="-15" y1="-5" x2="15" y2="-5" />
                <line x1="0" y1="5" x2="-15" y2="17" />
                <line x1="0" y1="5" x2="15" y2="17" /></g>
<text text-anchor="middle" x="58.7285" y="-113" font-family="Helvetica,sans-Serif" font-size="10.00">Candidate</text>
</g>
<!-- A14&#45;&gt;A4 -->
<g id="edge15" class="edge"><title>A14&#45;&gt;A4</title>
<path fill="none" stroke="black" d="M110.817,-141C140.106,-141 177.695,-141 211.683,-141"/>
<polygon fill="none" stroke="black" points="212.103,-144.5 222.103,-141 212.103,-137.5 212.103,-144.5"/>
</g>
<!-- A16 -->
<g id="node17" class="node"><title>A16</title>
<ellipse fill="none" stroke="black" cx="713.884" cy="-169" rx="82.0528" ry="22.7556"/>
<text text-anchor="middle" x="713.884" y="-172" font-family="Helvetica,sans-Serif" font-size="10.00">send new password</text>
<text text-anchor="middle" x="713.884" y="-160" font-family="Helvetica,sans-Serif" font-size="10.00">link</text>
</g>
<!-- A15&#45;&gt;A16 -->
<g id="edge17" class="edge"><title>A15&#45;&gt;A16</title>
<path fill="none" stroke="black" d="M576.254,-184.277C592.492,-182.462 609.993,-180.505 626.873,-178.617"/>
<polygon fill="none" stroke="black" points="627.736,-182.043 637.285,-177.453 626.958,-175.086 627.736,-182.043"/>
</g>
<!-- A16&#45;&gt;A4 -->
<g id="edge18" class="edge"><title>A16&#45;&gt;A4</title>
<path fill="none" stroke="black" d="M633.943,-163.612C563.706,-158.819 461.193,-151.822 388.836,-146.884"/>
<polygon fill="none" stroke="black" points="389.048,-143.39 378.833,-146.201 388.571,-150.374 389.048,-143.39"/>
</g>
<!-- A18 -->
<g id="node19" class="node"><title>A18</title>
<ellipse fill="none" stroke="black" cx="713.884" cy="-95" rx="70.1317" ry="18"/>
<text text-anchor="middle" x="713.884" y="-92" font-family="Helvetica,sans-Serif" font-size="10.00">Login Landing Page</text>
</g>
<!-- A17&#45;&gt;A18 -->
<g id="edge20" class="edge"><title>A17&#45;&gt;A18</title>
<path fill="none" stroke="black" d="M566.961,-95C587.739,-95 611.38,-95 633.494,-95"/>
<polygon fill="none" stroke="black" points="633.53,-98.5001 643.53,-95 633.53,-91.5001 633.53,-98.5001"/>
</g>
<!-- A19 -->
<g id="node20" class="node"><title>A19</title>
<ellipse fill="cornsilk" stroke="black" cx="932.573" cy="-148" rx="85.3258" ry="39.6962"/>
<text text-anchor="middle" x="932.573" y="-163" font-family="Helvetica,sans-Serif" font-size="10.00">Check Account</text>
<text text-anchor="middle" x="932.573" y="-151" font-family="Helvetica,sans-Serif" font-size="10.00">Activation status</text>
<text text-anchor="middle" x="932.573" y="-139" font-family="Helvetica,sans-Serif" font-size="10.00">and display reminder</text>
<text text-anchor="middle" x="932.573" y="-127" font-family="Helvetica,sans-Serif" font-size="10.00">if not activated</text>
</g>
<!-- A18&#45;&gt;A19 -->
<g id="edge21" class="edge"><title>A18&#45;&gt;A19</title>
<path fill="none" stroke="black" d="M765.414,-107.359C792.552,-113.997 826.533,-122.308 856.682,-129.683"/>
</g>
<!-- A20 -->
<g id="node21" class="node"><title>A20</title>
<ellipse fill="none" stroke="black" cx="932.573" cy="-72" rx="64.0955" ry="18"/>
<text text-anchor="middle" x="932.573" y="-69" font-family="Helvetica,sans-Serif" font-size="10.00">Candidate Logout</text>
</g>
<!-- A18&#45;&gt;A20 -->
<g id="edge22" class="edge"><title>A18&#45;&gt;A20</title>
<path fill="none" stroke="black" d="M779.018,-88.1926C805.134,-85.4206 835.386,-82.2095 862.031,-79.3813"/>
<polygon fill="none" stroke="black" points="862.475,-82.8539 872.05,-78.3179 861.737,-75.893 862.475,-82.8539"/>
</g>
<!-- A21 -->
<g id="node22" class="node"><title>A21</title>
<ellipse fill="yellowgreen" stroke="black" cx="932.573" cy="-18" rx="42.8003" ry="18"/>
<text text-anchor="middle" x="932.573" y="-15" font-family="Helvetica,sans-Serif" font-size="10.00">Start Test</text>
</g>
<!-- A18&#45;&gt;A21 -->
<g id="edge23" class="edge"><title>A18&#45;&gt;A21</title>
<path fill="none" stroke="black" d="M753.183,-79.922C779.491,-69.7131 815.285,-56.1137 847.16,-45 860.242,-40.4386 874.565,-35.7455 887.638,-31.5777"/>
<polygon fill="none" stroke="black" points="888.871,-34.8585 897.349,-28.5039 886.759,-28.1848 888.871,-34.8585"/>
</g>
<!-- A20&#45;&gt;A4 -->
<g id="edge24" class="edge"><title>A20&#45;&gt;A4</title>
<path fill="none" stroke="black" d="M877.908,-62.518C785.131,-48.1079 589.537,-26.4954 431.77,-68 397.904,-76.9092 363.582,-96.9477 338.842,-113.78"/>
<polygon fill="none" stroke="black" points="336.718,-110.993 330.507,-119.577 340.715,-116.74 336.718,-110.993"/>
</g>
</g>
</svg>
