<?xml version="1.0" encoding="UTF-8" standalone="no"?>
<!DOCTYPE svg PUBLIC "-//W3C//DTD SVG 1.1//EN"
 "http://www.w3.org/Graphics/SVG/1.1/DTD/svg11.dtd">
<!-- Generated by graphviz version 2.38.0 (20140413.2041)
 -->
<!-- Title: G Pages: 1 -->
<svg width="1446pt" height="743pt"
 viewBox="0.00 0.00 1445.76 742.77" xmlns="http://www.w3.org/2000/svg" xmlns:xlink="http://www.w3.org/1999/xlink">
<g id="graph0" class="graph" transform="scale(1 1) rotate(0) translate(4 738.765)">
<title>G</title>
<polygon fill="white" stroke="none" points="-4,4 -4,-738.765 1441.76,-738.765 1441.76,4 -4,4"/>
<!-- A0 -->
<g id="node1" class="node"><title>A0</title>
<path fill="none" stroke="black" d="M30.6305,-196.5C30.6305,-196.5 71.2955,-196.5 71.2955,-196.5 77.2955,-196.5 83.2955,-202.5 83.2955,-208.5 83.2955,-208.5 83.2955,-220.5 83.2955,-220.5 83.2955,-226.5 77.2955,-232.5 71.2955,-232.5 71.2955,-232.5 30.6305,-232.5 30.6305,-232.5 24.6305,-232.5 18.6305,-226.5 18.6305,-220.5 18.6305,-220.5 18.6305,-208.5 18.6305,-208.5 18.6305,-202.5 24.6305,-196.5 30.6305,-196.5"/>
<text text-anchor="middle" x="50.963" y="-211.5" font-family="Helvetica,sans-Serif" font-size="10.00">css.html</text>
</g>
<!-- A1 -->
<g id="node2" class="node"><title>A1</title>
<path fill="none" stroke="black" d="M20.0635,-251.5C20.0635,-251.5 81.8625,-251.5 81.8625,-251.5 87.8625,-251.5 93.8625,-257.5 93.8625,-263.5 93.8625,-263.5 93.8625,-275.5 93.8625,-275.5 93.8625,-281.5 87.8625,-287.5 81.8625,-287.5 81.8625,-287.5 20.0635,-287.5 20.0635,-287.5 14.0635,-287.5 8.0635,-281.5 8.0635,-275.5 8.0635,-275.5 8.0635,-263.5 8.0635,-263.5 8.0635,-257.5 14.0635,-251.5 20.0635,-251.5"/>
<text text-anchor="middle" x="50.963" y="-266.5" font-family="Helvetica,sans-Serif" font-size="10.00">admindb.php</text>
</g>
<!-- A2 -->
<g id="node3" class="node"><title>A2</title>
<path fill="none" stroke="black" d="M12,-306.5C12,-306.5 89.926,-306.5 89.926,-306.5 95.926,-306.5 101.926,-312.5 101.926,-318.5 101.926,-318.5 101.926,-330.5 101.926,-330.5 101.926,-336.5 95.926,-342.5 89.926,-342.5 89.926,-342.5 12,-342.5 12,-342.5 6,-342.5 -3.55271e-14,-336.5 -3.55271e-14,-330.5 -3.55271e-14,-330.5 -3.55271e-14,-318.5 -3.55271e-14,-318.5 -3.55271e-14,-312.5 6,-306.5 12,-306.5"/>
<text text-anchor="middle" x="50.963" y="-321.5" font-family="Helvetica,sans-Serif" font-size="10.00">candidatedb.php</text>
</g>
<!-- A3 -->
<g id="node4" class="node"><title>A3</title>
<ellipse fill="none" stroke="black" cx="50.963" cy="-372.5" rx="11" ry="11"/>
</g>
<!-- A4 -->
<g id="node5" class="node"><title>A4</title>
<path fill="none" stroke="black" d="M207.713,-512.5C207.713,-512.5 285.069,-512.5 285.069,-512.5 291.069,-512.5 297.069,-518.5 297.069,-524.5 297.069,-524.5 297.069,-536.5 297.069,-536.5 297.069,-542.5 291.069,-548.5 285.069,-548.5 285.069,-548.5 207.713,-548.5 207.713,-548.5 201.713,-548.5 195.713,-542.5 195.713,-536.5 195.713,-536.5 195.713,-524.5 195.713,-524.5 195.713,-518.5 201.713,-512.5 207.713,-512.5"/>
<text text-anchor="middle" x="246.391" y="-527.5" font-family="Helvetica,sans-Serif" font-size="10.00">admin index.php</text>
</g>
<!-- A3&#45;&gt;A4 -->
<g id="edge1" class="edge"><title>A3&#45;&gt;A4</title>
<path fill="none" stroke="black" d="M60.2744,-379.289C86.7552,-400.92 170.057,-468.964 215.351,-505.962"/>
<polygon fill="black" stroke="black" points="223.344,-512.491 212.752,-509.65 219.471,-509.328 215.599,-506.165 215.599,-506.165 215.599,-506.165 219.471,-509.328 218.446,-502.68 223.344,-512.491 223.344,-512.491"/>
<text text-anchor="middle" x="148.82" y="-477.5" font-family="Helvetica,sans-Serif" font-size="10.00">[Start Admin]</text>
</g>
<!-- A9 -->
<g id="node10" class="node"><title>A9</title>
<path fill="none" stroke="black" d="M442.156,-277.5C442.156,-277.5 535.639,-277.5 535.639,-277.5 541.639,-277.5 547.639,-283.5 547.639,-289.5 547.639,-289.5 547.639,-301.5 547.639,-301.5 547.639,-307.5 541.639,-313.5 535.639,-313.5 535.639,-313.5 442.156,-313.5 442.156,-313.5 436.156,-313.5 430.156,-307.5 430.156,-301.5 430.156,-301.5 430.156,-289.5 430.156,-289.5 430.156,-283.5 436.156,-277.5 442.156,-277.5"/>
<text text-anchor="middle" x="488.897" y="-292.5" font-family="Helvetica,sans-Serif" font-size="10.00">candidate index.php</text>
</g>
<!-- A3&#45;&gt;A9 -->
<g id="edge29" class="edge"><title>A3&#45;&gt;A9</title>
<path fill="none" stroke="black" d="M61.8872,-370.747C108.972,-362.43 312.028,-326.564 419.914,-307.508"/>
<polygon fill="black" stroke="black" points="430.049,-305.718 420.984,-311.889 425.125,-306.588 420.201,-307.457 420.201,-307.457 420.201,-307.457 425.125,-306.588 419.418,-303.026 430.049,-305.718 430.049,-305.718"/>
<text text-anchor="middle" x="246.391" y="-349.5" font-family="Helvetica,sans-Serif" font-size="10.00">[Start Candidate]</text>
</g>
<!-- A5 -->
<g id="node6" class="node"><title>A5</title>
<path fill="none" stroke="black" d="M446.33,-616.5C446.33,-616.5 531.465,-616.5 531.465,-616.5 537.465,-616.5 543.465,-622.5 543.465,-628.5 543.465,-628.5 543.465,-640.5 543.465,-640.5 543.465,-646.5 537.465,-652.5 531.465,-652.5 531.465,-652.5 446.33,-652.5 446.33,-652.5 440.33,-652.5 434.33,-646.5 434.33,-640.5 434.33,-640.5 434.33,-628.5 434.33,-628.5 434.33,-622.5 440.33,-616.5 446.33,-616.5"/>
<text text-anchor="middle" x="488.897" y="-637.5" font-family="Helvetica,sans-Serif" font-size="10.00">admin</text>
<text text-anchor="middle" x="488.897" y="-625.5" font-family="Helvetica,sans-Serif" font-size="10.00">sendmail_test.php</text>
</g>
<!-- A4&#45;&gt;A5 -->
<g id="edge2" class="edge"><title>A4&#45;&gt;A5</title>
<path fill="none" stroke="black" d="M275.611,-548.615C287.592,-556.038 301.827,-564.509 315.069,-571.5 349.243,-589.543 357.964,-594.113 394.216,-607.5 403.842,-611.055 414.163,-614.44 424.309,-617.537"/>
<polygon fill="black" stroke="black" points="433.955,-620.414 423.086,-621.868 429.164,-618.985 424.373,-617.556 424.373,-617.556 424.373,-617.556 429.164,-618.985 425.659,-613.243 433.955,-620.414 433.955,-620.414"/>
</g>
<!-- A6 -->
<g id="node7" class="node"><title>A6</title>
<path fill="none" stroke="black" d="M406.216,-561.5C406.216,-561.5 571.578,-561.5 571.578,-561.5 577.578,-561.5 583.578,-567.5 583.578,-573.5 583.578,-573.5 583.578,-585.5 583.578,-585.5 583.578,-591.5 577.578,-597.5 571.578,-597.5 571.578,-597.5 406.216,-597.5 406.216,-597.5 400.216,-597.5 394.216,-591.5 394.216,-585.5 394.216,-585.5 394.216,-573.5 394.216,-573.5 394.216,-567.5 400.216,-561.5 406.216,-561.5"/>
<text text-anchor="middle" x="442.114" y="-582.5" font-family="Helvetica,sans-Serif" font-size="10.00">admin</text>
<text text-anchor="middle" x="442.114" y="-570.5" font-family="Helvetica,sans-Serif" font-size="10.00">adminlogin.php</text>
<polyline fill="none" stroke="black" points="490.012,-561.5 490.012,-597.5 "/>
<text text-anchor="middle" x="536.795" y="-576.5" font-family="Helvetica,sans-Serif" font-size="10.00">Validate Fields</text>
</g>
<!-- A4&#45;&gt;A6 -->
<g id="edge3" class="edge"><title>A4&#45;&gt;A6</title>
<path fill="none" stroke="black" d="M297.282,-540.845C303.275,-542.08 309.309,-543.321 315.069,-544.5 338.925,-549.383 364.641,-554.611 388.759,-559.497"/>
<polygon fill="black" stroke="black" points="398.627,-561.496 387.933,-563.921 393.726,-560.503 388.826,-559.511 388.826,-559.511 388.826,-559.511 393.726,-560.503 389.719,-555.1 398.627,-561.496 398.627,-561.496"/>
<text text-anchor="middle" x="345.643" y="-558.5" font-family="Helvetica,sans-Serif" font-size="10.00">[notLoggedIn]</text>
</g>
<!-- A7 -->
<g id="node8" class="node"><title>A7</title>
<path fill="none" stroke="black" d="M710.212,-530.5C710.212,-530.5 800.906,-530.5 800.906,-530.5 806.906,-530.5 812.906,-536.5 812.906,-542.5 812.906,-542.5 812.906,-554.5 812.906,-554.5 812.906,-560.5 806.906,-566.5 800.906,-566.5 800.906,-566.5 710.212,-566.5 710.212,-566.5 704.212,-566.5 698.212,-560.5 698.212,-554.5 698.212,-554.5 698.212,-542.5 698.212,-542.5 698.212,-536.5 704.212,-530.5 710.212,-530.5"/>
<text text-anchor="middle" x="755.559" y="-545.5" font-family="Helvetica,sans-Serif" font-size="10.00">adminfunctions.php</text>
</g>
<!-- A4&#45;&gt;A7 -->
<g id="edge4" class="edge"><title>A4&#45;&gt;A7</title>
<path fill="none" stroke="black" d="M297.24,-531.718C362.886,-533.382 481.905,-536.61 583.578,-540.5 618.01,-541.818 656.327,-543.583 687.947,-545.12"/>
<polygon fill="black" stroke="black" points="697.965,-545.61 687.757,-549.616 692.971,-545.366 687.977,-545.121 687.977,-545.121 687.977,-545.121 692.971,-545.366 688.197,-540.627 697.965,-545.61 697.965,-545.61"/>
<text text-anchor="middle" x="488.897" y="-543.5" font-family="Helvetica,sans-Serif" font-size="10.00">[AlreadyLoggedIn]</text>
</g>
<!-- A8 -->
<g id="node9" class="node"><title>A8</title>
<path fill="none" stroke="black" d="M432.987,-457.5C432.987,-457.5 544.807,-457.5 544.807,-457.5 550.807,-457.5 556.807,-463.5 556.807,-469.5 556.807,-469.5 556.807,-481.5 556.807,-481.5 556.807,-487.5 550.807,-493.5 544.807,-493.5 544.807,-493.5 432.987,-493.5 432.987,-493.5 426.987,-493.5 420.987,-487.5 420.987,-481.5 420.987,-481.5 420.987,-469.5 420.987,-469.5 420.987,-463.5 426.987,-457.5 432.987,-457.5"/>
<text text-anchor="middle" x="488.897" y="-478.5" font-family="Helvetica,sans-Serif" font-size="10.00">admin</text>
<text text-anchor="middle" x="488.897" y="-466.5" font-family="Helvetica,sans-Serif" font-size="10.00">admingeneratehash.php</text>
</g>
<!-- A4&#45;&gt;A8 -->
<g id="edge5" class="edge"><title>A4&#45;&gt;A8</title>
<path fill="none" stroke="black" d="M297.224,-519.104C330.063,-511.594 373.719,-501.611 410.972,-493.092"/>
<polygon fill="black" stroke="black" points="420.793,-490.846 412.048,-497.462 415.919,-491.96 411.044,-493.075 411.044,-493.075 411.044,-493.075 415.919,-491.96 410.041,-488.688 420.793,-490.846 420.793,-490.846"/>
</g>
<!-- A4&#45;&gt;A9 -->
<g id="edge6" class="edge"><title>A4&#45;&gt;A9</title>
<path fill="none" stroke="black" d="M265.864,-512.45C310.632,-468.707 424.529,-357.418 469.361,-313.611"/>
</g>
<!-- A6&#45;&gt;A7 -->
<g id="edge9" class="edge"><title>A6&#45;&gt;A7</title>
<path fill="none" stroke="black" d="M583.579,-568.527C618.064,-564.488 656.386,-559.999 687.995,-556.297"/>
<polygon fill="black" stroke="black" points="698.009,-555.124 688.6,-560.757 693.043,-555.705 688.077,-556.287 688.077,-556.287 688.077,-556.287 693.043,-555.705 687.553,-551.818 698.009,-555.124 698.009,-555.124"/>
</g>
<!-- A16 -->
<g id="node17" class="node"><title>A16</title>
<path fill="none" stroke="black" d="M1168.27,-543.5C1168.27,-543.5 1240.06,-543.5 1240.06,-543.5 1246.06,-543.5 1252.06,-549.5 1252.06,-555.5 1252.06,-555.5 1252.06,-567.5 1252.06,-567.5 1252.06,-573.5 1246.06,-579.5 1240.06,-579.5 1240.06,-579.5 1168.27,-579.5 1168.27,-579.5 1162.27,-579.5 1156.27,-573.5 1156.27,-567.5 1156.27,-567.5 1156.27,-555.5 1156.27,-555.5 1156.27,-549.5 1162.27,-543.5 1168.27,-543.5"/>
<text text-anchor="middle" x="1204.17" y="-558.5" font-family="Helvetica,sans-Serif" font-size="10.00">adminerror.php</text>
</g>
<!-- A6&#45;&gt;A16 -->
<g id="edge15" class="edge"><title>A6&#45;&gt;A16</title>
<path fill="none" stroke="black" d="M558.118,-597.559C659.223,-623.019 855.222,-667.387 1025.23,-676.5 1070.46,-678.924 1087.25,-697.951 1127.14,-676.5 1161.31,-658.128 1182.69,-616.916 1193.77,-589.154"/>
<polygon fill="black" stroke="black" points="1197.4,-579.601 1198.06,-590.547 1195.62,-584.276 1193.85,-588.951 1193.85,-588.951 1193.85,-588.951 1195.62,-584.276 1189.64,-587.355 1197.4,-579.601 1197.4,-579.601"/>
<text text-anchor="middle" x="845.077" y="-660.5" font-family="Helvetica,sans-Serif" font-size="10.00">[error]</text>
</g>
<!-- A10 -->
<g id="node11" class="node"><title>A10</title>
<path fill="none" stroke="black" d="M1037.23,-630.5C1037.23,-630.5 1115.14,-630.5 1115.14,-630.5 1121.14,-630.5 1127.14,-636.5 1127.14,-642.5 1127.14,-642.5 1127.14,-654.5 1127.14,-654.5 1127.14,-660.5 1121.14,-666.5 1115.14,-666.5 1115.14,-666.5 1037.23,-666.5 1037.23,-666.5 1031.23,-666.5 1025.23,-660.5 1025.23,-654.5 1025.23,-654.5 1025.23,-642.5 1025.23,-642.5 1025.23,-636.5 1031.23,-630.5 1037.23,-630.5"/>
<text text-anchor="middle" x="1076.19" y="-645.5" font-family="Helvetica,sans-Serif" font-size="10.00">adminlogout.php</text>
</g>
<!-- A7&#45;&gt;A10 -->
<g id="edge7" class="edge"><title>A7&#45;&gt;A10</title>
<path fill="none" stroke="black" d="M773.585,-566.67C795.149,-588.29 834.567,-623.36 876.408,-638.5 920.795,-654.561 974.413,-656.328 1014.77,-654.484"/>
<polygon fill="black" stroke="black" points="1024.99,-653.927 1015.25,-658.964 1020,-654.199 1015.01,-654.471 1015.01,-654.471 1015.01,-654.471 1020,-654.199 1014.76,-649.977 1024.99,-653.927 1024.99,-653.927"/>
</g>
<!-- A12 -->
<g id="node13" class="node"><title>A12</title>
<path fill="none" stroke="black" d="M908.14,-433.5C908.14,-433.5 975.498,-433.5 975.498,-433.5 981.498,-433.5 987.498,-439.5 987.498,-445.5 987.498,-445.5 987.498,-457.5 987.498,-457.5 987.498,-463.5 981.498,-469.5 975.498,-469.5 975.498,-469.5 908.14,-469.5 908.14,-469.5 902.14,-469.5 896.14,-463.5 896.14,-457.5 896.14,-457.5 896.14,-445.5 896.14,-445.5 896.14,-439.5 902.14,-433.5 908.14,-433.5"/>
<text text-anchor="middle" x="941.819" y="-448.5" font-family="Helvetica,sans-Serif" font-size="10.00">adminadd.php</text>
</g>
<!-- A7&#45;&gt;A12 -->
<g id="edge10" class="edge"><title>A7&#45;&gt;A12</title>
<path fill="none" stroke="black" d="M786.093,-530.254C810.044,-515.761 844.881,-495.365 876.408,-479.5 880.207,-477.588 884.166,-475.678 888.171,-473.804"/>
<polygon fill="black" stroke="black" points="897.546,-469.514 890.326,-477.767 893,-471.594 888.453,-473.675 888.453,-473.675 888.453,-473.675 893,-471.594 886.581,-469.583 897.546,-469.514 897.546,-469.514"/>
</g>
<!-- A13 -->
<g id="node14" class="node"><title>A13</title>
<path fill="none" stroke="black" d="M900.921,-378.5C900.921,-378.5 982.717,-378.5 982.717,-378.5 988.717,-378.5 994.717,-384.5 994.717,-390.5 994.717,-390.5 994.717,-402.5 994.717,-402.5 994.717,-408.5 988.717,-414.5 982.717,-414.5 982.717,-414.5 900.921,-414.5 900.921,-414.5 894.921,-414.5 888.921,-408.5 888.921,-402.5 888.921,-402.5 888.921,-390.5 888.921,-390.5 888.921,-384.5 894.921,-378.5 900.921,-378.5"/>
<text text-anchor="middle" x="941.819" y="-393.5" font-family="Helvetica,sans-Serif" font-size="10.00">admindisplay.php</text>
</g>
<!-- A7&#45;&gt;A13 -->
<g id="edge11" class="edge"><title>A7&#45;&gt;A13</title>
<path fill="none" stroke="black" d="M770.266,-530.322C790.861,-504.036 832.12,-455.206 876.408,-424.5 878.932,-422.75 881.583,-421.073 884.311,-419.473"/>
<polygon fill="black" stroke="black" points="893.227,-414.621 886.594,-423.353 888.835,-417.011 884.443,-419.401 884.443,-419.401 884.443,-419.401 888.835,-417.011 882.293,-415.448 893.227,-414.621 893.227,-414.621"/>
</g>
<!-- A14 -->
<g id="node15" class="node"><title>A14</title>
<path fill="none" stroke="black" d="M892.858,-592.5C892.858,-592.5 990.78,-592.5 990.78,-592.5 996.78,-592.5 1002.78,-598.5 1002.78,-604.5 1002.78,-604.5 1002.78,-616.5 1002.78,-616.5 1002.78,-622.5 996.78,-628.5 990.78,-628.5 990.78,-628.5 892.858,-628.5 892.858,-628.5 886.858,-628.5 880.858,-622.5 880.858,-616.5 880.858,-616.5 880.858,-604.5 880.858,-604.5 880.858,-598.5 886.858,-592.5 892.858,-592.5"/>
<text text-anchor="middle" x="941.819" y="-607.5" font-family="Helvetica,sans-Serif" font-size="10.00">admindaddtester.php</text>
</g>
<!-- A7&#45;&gt;A14 -->
<g id="edge12" class="edge"><title>A7&#45;&gt;A14</title>
<path fill="none" stroke="black" d="M806.22,-566.605C814.718,-569.625 823.472,-572.688 831.745,-575.5 845.154,-580.058 859.544,-584.788 873.331,-589.242"/>
<polygon fill="black" stroke="black" points="883.24,-592.431 872.343,-593.652 878.481,-590.899 873.721,-589.368 873.721,-589.368 873.721,-589.368 878.481,-590.899 875.099,-585.084 883.24,-592.431 883.24,-592.431"/>
</g>
<!-- A15 -->
<g id="node16" class="node"><title>A15</title>
<path fill="none" stroke="black" d="M888.418,-488.5C888.418,-488.5 995.219,-488.5 995.219,-488.5 1001.22,-488.5 1007.22,-494.5 1007.22,-500.5 1007.22,-500.5 1007.22,-512.5 1007.22,-512.5 1007.22,-518.5 1001.22,-524.5 995.219,-524.5 995.219,-524.5 888.418,-524.5 888.418,-524.5 882.418,-524.5 876.418,-518.5 876.418,-512.5 876.418,-512.5 876.418,-500.5 876.418,-500.5 876.418,-494.5 882.418,-488.5 888.418,-488.5"/>
<text text-anchor="middle" x="941.819" y="-503.5" font-family="Helvetica,sans-Serif" font-size="10.00">admindisplatesters.php</text>
</g>
<!-- A7&#45;&gt;A15 -->
<g id="edge13" class="edge"><title>A7&#45;&gt;A15</title>
<path fill="none" stroke="black" d="M813.095,-535.613C829.965,-531.768 848.717,-527.494 866.541,-523.431"/>
<polygon fill="black" stroke="black" points="876.331,-521.199 867.581,-527.809 871.456,-522.311 866.581,-523.422 866.581,-523.422 866.581,-523.422 871.456,-522.311 865.58,-519.034 876.331,-521.199 876.331,-521.199"/>
</g>
<!-- A7&#45;&gt;A16 -->
<g id="edge14" class="edge"><title>A7&#45;&gt;A16</title>
<path fill="none" stroke="black" d="M813.122,-550.146C898.718,-552.638 1060.25,-557.34 1146.13,-559.84"/>
<polygon fill="black" stroke="black" points="1156.22,-560.133 1146.09,-564.34 1151.22,-559.988 1146.22,-559.842 1146.22,-559.842 1146.22,-559.842 1151.22,-559.988 1146.35,-555.344 1156.22,-560.133 1156.22,-560.133"/>
<text text-anchor="middle" x="941.819" y="-558.5" font-family="Helvetica,sans-Serif" font-size="10.00">[error]</text>
</g>
<!-- A17 -->
<g id="node18" class="node"><title>A17</title>
<path fill="none" stroke="black" d="M711.598,-161.5C711.598,-161.5 799.521,-161.5 799.521,-161.5 805.521,-161.5 811.521,-167.5 811.521,-173.5 811.521,-173.5 811.521,-185.5 811.521,-185.5 811.521,-191.5 805.521,-197.5 799.521,-197.5 799.521,-197.5 711.598,-197.5 711.598,-197.5 705.598,-197.5 699.598,-191.5 699.598,-185.5 699.598,-185.5 699.598,-173.5 699.598,-173.5 699.598,-167.5 705.598,-161.5 711.598,-161.5"/>
<text text-anchor="middle" x="755.559" y="-176.5" font-family="Helvetica,sans-Serif" font-size="10.00">candidatelogin.php</text>
</g>
<!-- A9&#45;&gt;A17 -->
<g id="edge30" class="edge"><title>A9&#45;&gt;A17</title>
<path fill="none" stroke="black" d="M516.99,-277.215C539.067,-262.882 571.414,-243.145 601.578,-229.5 629.703,-216.777 662.043,-205.724 689.722,-197.268"/>
<polygon fill="black" stroke="black" points="699.304,-194.387 691.023,-201.576 694.516,-195.827 689.728,-197.267 689.728,-197.267 689.728,-197.267 694.516,-195.827 688.432,-192.957 699.304,-194.387 699.304,-194.387"/>
<text text-anchor="middle" x="640.476" y="-232.5" font-family="Helvetica,sans-Serif" font-size="10.00">[notLoggedIn]</text>
</g>
<!-- A19 -->
<g id="node20" class="node"><title>A19</title>
<path fill="none" stroke="black" d="M888.408,-104.5C888.408,-104.5 995.229,-104.5 995.229,-104.5 1001.23,-104.5 1007.23,-110.5 1007.23,-116.5 1007.23,-116.5 1007.23,-128.5 1007.23,-128.5 1007.23,-134.5 1001.23,-140.5 995.229,-140.5 995.229,-140.5 888.408,-140.5 888.408,-140.5 882.408,-140.5 876.408,-134.5 876.408,-128.5 876.408,-128.5 876.408,-116.5 876.408,-116.5 876.408,-110.5 882.408,-104.5 888.408,-104.5"/>
<text text-anchor="middle" x="941.819" y="-119.5" font-family="Helvetica,sans-Serif" font-size="10.00">candidatefunctions.php</text>
</g>
<!-- A9&#45;&gt;A19 -->
<g id="edge32" class="edge"><title>A9&#45;&gt;A19</title>
<path fill="none" stroke="black" d="M505.582,-277.348C537.415,-242.126 613.718,-165.674 697.373,-139.5 752.11,-122.374 817.031,-118.606 866.059,-118.859"/>
<polygon fill="black" stroke="black" points="876.271,-118.97 866.222,-123.361 871.271,-118.915 866.271,-118.861 866.271,-118.861 866.271,-118.861 871.271,-118.915 866.321,-114.361 876.271,-118.97 876.271,-118.97"/>
<text text-anchor="middle" x="755.559" y="-142.5" font-family="Helvetica,sans-Serif" font-size="10.00">[AlreadyLoggedIn]</text>
</g>
<!-- A21 -->
<g id="node22" class="node"><title>A21</title>
<path fill="none" stroke="black" d="M709.373,-324.5C709.373,-324.5 801.745,-324.5 801.745,-324.5 807.745,-324.5 813.745,-330.5 813.745,-336.5 813.745,-336.5 813.745,-348.5 813.745,-348.5 813.745,-354.5 807.745,-360.5 801.745,-360.5 801.745,-360.5 709.373,-360.5 709.373,-360.5 703.373,-360.5 697.373,-354.5 697.373,-348.5 697.373,-348.5 697.373,-336.5 697.373,-336.5 697.373,-330.5 703.373,-324.5 709.373,-324.5"/>
<text text-anchor="middle" x="755.559" y="-339.5" font-family="Helvetica,sans-Serif" font-size="10.00">candidateforgot.php</text>
</g>
<!-- A9&#45;&gt;A21 -->
<g id="edge34" class="edge"><title>A9&#45;&gt;A21</title>
<path fill="none" stroke="black" d="M547.651,-305.756C588.627,-313.033 643.766,-322.825 686.82,-330.471"/>
<polygon fill="black" stroke="black" points="696.928,-332.266 686.295,-334.948 692.005,-331.391 687.082,-330.517 687.082,-330.517 687.082,-330.517 692.005,-331.391 687.869,-326.086 696.928,-332.266 696.928,-332.266"/>
<text text-anchor="middle" x="640.476" y="-331.5" font-family="Helvetica,sans-Serif" font-size="10.00">[forgot Password]</text>
</g>
<!-- A11 -->
<g id="node12" class="node"><title>A11</title>
<ellipse fill="none" stroke="black" cx="1381.81" cy="-454.5" rx="11" ry="11"/>
<ellipse fill="none" stroke="black" cx="1381.81" cy="-454.5" rx="15" ry="15"/>
</g>
<!-- A10&#45;&gt;A11 -->
<g id="edge8" class="edge"><title>A10&#45;&gt;A11</title>
<path fill="none" stroke="black" d="M1127.39,-640.294C1166.77,-632.112 1221.69,-616.725 1263.19,-589.5 1309.62,-559.035 1348.53,-505.338 1367.8,-475.676"/>
<polygon fill="black" stroke="black" points="1373.35,-466.95 1371.78,-477.803 1370.67,-471.168 1367.99,-475.387 1367.99,-475.387 1367.99,-475.387 1370.67,-471.168 1364.19,-472.972 1373.35,-466.95 1373.35,-466.95"/>
</g>
<!-- A12&#45;&gt;A16 -->
<g id="edge16" class="edge"><title>A12&#45;&gt;A16</title>
<path fill="none" stroke="black" d="M987.505,-458.016C1026.04,-464.863 1082.37,-477.87 1127.14,-500.5 1145.45,-509.753 1163.46,-523.919 1177.36,-536.271"/>
<polygon fill="black" stroke="black" points="1185.03,-543.283 1174.61,-539.861 1181.34,-539.911 1177.65,-536.539 1177.65,-536.539 1177.65,-536.539 1181.34,-539.911 1180.69,-533.216 1185.03,-543.283 1185.03,-543.283"/>
<text text-anchor="middle" x="1076.19" y="-503.5" font-family="Helvetica,sans-Serif" font-size="10.00">[error]</text>
</g>
<!-- A13&#45;&gt;A16 -->
<g id="edge17" class="edge"><title>A13&#45;&gt;A16</title>
<path fill="none" stroke="black" d="M995.063,-402.205C1034.44,-408.647 1088.14,-422.204 1127.14,-450.5 1156.82,-472.027 1178.68,-508.88 1191.16,-534.176"/>
<polygon fill="black" stroke="black" points="1195.47,-543.248 1187.11,-536.153 1193.33,-538.734 1191.18,-534.219 1191.18,-534.219 1191.18,-534.219 1193.33,-538.734 1195.24,-532.285 1195.47,-543.248 1195.47,-543.248"/>
<text text-anchor="middle" x="1076.19" y="-453.5" font-family="Helvetica,sans-Serif" font-size="10.00">[error]</text>
</g>
<!-- A14&#45;&gt;A16 -->
<g id="edge18" class="edge"><title>A14&#45;&gt;A16</title>
<path fill="none" stroke="black" d="M1002.87,-599.197C1045.97,-591.085 1103.68,-580.223 1146.09,-572.243"/>
<polygon fill="black" stroke="black" points="1155.97,-570.382 1146.98,-576.654 1151.06,-571.307 1146.15,-572.231 1146.15,-572.231 1146.15,-572.231 1151.06,-571.307 1145.31,-567.809 1155.97,-570.382 1155.97,-570.382"/>
<text text-anchor="middle" x="1076.19" y="-597.5" font-family="Helvetica,sans-Serif" font-size="10.00">[error]</text>
</g>
<!-- A15&#45;&gt;A16 -->
<g id="edge19" class="edge"><title>A15&#45;&gt;A16</title>
<path fill="none" stroke="black" d="M1007.34,-513.862C1042.97,-518.622 1087.84,-525.765 1127.14,-535.5 1133.36,-537.041 1139.8,-538.865 1146.17,-540.823"/>
<polygon fill="black" stroke="black" points="1156.1,-543.986 1145.2,-545.237 1151.33,-542.468 1146.57,-540.949 1146.57,-540.949 1146.57,-540.949 1151.33,-542.468 1147.94,-536.662 1156.1,-543.986 1156.1,-543.986"/>
<text text-anchor="middle" x="1076.19" y="-538.5" font-family="Helvetica,sans-Serif" font-size="10.00">[error]</text>
</g>
<!-- A16&#45;&gt;A4 -->
<g id="edge20" class="edge"><title>A16&#45;&gt;A4</title>
<path fill="none" stroke="black" d="M1198.24,-579.512C1189.27,-608.755 1167.37,-666.229 1127.14,-695.5 1059.51,-744.714 1026.46,-733.5 942.819,-733.5 487.897,-733.5 487.897,-733.5 487.897,-733.5 379.945,-733.5 295.371,-612.591 262.388,-557.398"/>
<polygon fill="black" stroke="black" points="257.187,-548.515 266.123,-554.871 259.713,-552.83 262.239,-557.145 262.239,-557.145 262.239,-557.145 259.713,-552.83 258.356,-559.418 257.187,-548.515 257.187,-548.515"/>
</g>
<!-- A18 -->
<g id="node19" class="node"><title>A18</title>
<path fill="none" stroke="black" d="M1337.85,-163.5C1337.85,-163.5 1425.76,-163.5 1425.76,-163.5 1431.76,-163.5 1437.76,-169.5 1437.76,-175.5 1437.76,-175.5 1437.76,-187.5 1437.76,-187.5 1437.76,-193.5 1431.76,-199.5 1425.76,-199.5 1425.76,-199.5 1337.85,-199.5 1337.85,-199.5 1331.85,-199.5 1325.85,-193.5 1325.85,-187.5 1325.85,-187.5 1325.85,-175.5 1325.85,-175.5 1325.85,-169.5 1331.85,-163.5 1337.85,-163.5"/>
<text text-anchor="middle" x="1381.81" y="-178.5" font-family="Helvetica,sans-Serif" font-size="10.00">candidateerror.php</text>
</g>
<!-- A17&#45;&gt;A18 -->
<g id="edge21" class="edge"><title>A17&#45;&gt;A18</title>
<path fill="none" stroke="black" d="M811.661,-179.491C904.715,-179.502 1098.93,-179.64 1263.19,-180.5 1280.1,-180.589 1298.37,-180.724 1315.37,-180.868"/>
<polygon fill="black" stroke="black" points="1325.76,-180.958 1315.72,-185.371 1320.76,-180.914 1315.76,-180.871 1315.76,-180.871 1315.76,-180.871 1320.76,-180.914 1315.79,-176.371 1325.76,-180.958 1325.76,-180.958"/>
<text text-anchor="middle" x="1076.19" y="-183.5" font-family="Helvetica,sans-Serif" font-size="10.00">[error]</text>
</g>
<!-- A17&#45;&gt;A19 -->
<g id="edge31" class="edge"><title>A17&#45;&gt;A19</title>
<path fill="none" stroke="black" d="M811.843,-162.398C830.974,-156.48 852.642,-149.777 872.682,-143.578"/>
<polygon fill="black" stroke="black" points="882.371,-140.58 874.148,-147.835 877.595,-142.058 872.818,-143.536 872.818,-143.536 872.818,-143.536 877.595,-142.058 871.488,-139.237 882.371,-140.58 882.371,-140.58"/>
</g>
<!-- A18&#45;&gt;A9 -->
<g id="edge28" class="edge"><title>A18&#45;&gt;A9</title>
<path fill="none" stroke="black" d="M1355.73,-199.602C1322.84,-221.51 1262.57,-255.5 1205.17,-255.5 754.559,-255.5 754.559,-255.5 754.559,-255.5 687.11,-255.5 611.066,-268.358 557.856,-279.494"/>
<polygon fill="black" stroke="black" points="547.861,-281.622 556.705,-275.139 552.751,-280.581 557.642,-279.54 557.642,-279.54 557.642,-279.54 552.751,-280.581 558.579,-283.941 547.861,-281.622 547.861,-281.622"/>
</g>
<!-- A19&#45;&gt;A18 -->
<g id="edge22" class="edge"><title>A19&#45;&gt;A18</title>
<path fill="none" stroke="black" d="M1007.35,-120.939C1072.33,-120.345 1175.28,-122.078 1263.19,-135.5 1288.77,-139.406 1315.77,-149.489 1337.43,-159.223"/>
<polygon fill="black" stroke="black" points="1346.68,-163.5 1335.71,-163.386 1342.14,-161.401 1337.6,-159.302 1337.6,-159.302 1337.6,-159.302 1342.14,-161.401 1339.49,-155.218 1346.68,-163.5 1346.68,-163.5"/>
<text text-anchor="middle" x="1204.17" y="-138.5" font-family="Helvetica,sans-Serif" font-size="10.00">[error]</text>
</g>
<!-- A19&#45;&gt;A18 -->
<g id="edge23" class="edge"><title>A19&#45;&gt;A18</title>
<path fill="none" stroke="black" d="M1007.37,-108.091C1073.04,-96.1007 1177.11,-84.5053 1263.19,-108.5 1296.44,-117.771 1329.41,-139.622 1351.94,-157.017"/>
<polygon fill="black" stroke="black" points="1360.05,-163.43 1349.41,-160.753 1356.13,-160.327 1352.2,-157.224 1352.2,-157.224 1352.2,-157.224 1356.13,-160.327 1355,-153.696 1360.05,-163.43 1360.05,-163.43"/>
<text text-anchor="middle" x="1204.17" y="-111.5" font-family="Helvetica,sans-Serif" font-size="10.00">[error]</text>
</g>
<!-- A20 -->
<g id="node21" class="node"><title>A20</title>
<path fill="none" stroke="black" d="M1172.71,-0.5C1172.71,-0.5 1235.62,-0.5 1235.62,-0.5 1241.62,-0.5 1247.62,-6.5 1247.62,-12.5 1247.62,-12.5 1247.62,-24.5 1247.62,-24.5 1247.62,-30.5 1241.62,-36.5 1235.62,-36.5 1235.62,-36.5 1172.71,-36.5 1172.71,-36.5 1166.71,-36.5 1160.71,-30.5 1160.71,-24.5 1160.71,-24.5 1160.71,-12.5 1160.71,-12.5 1160.71,-6.5 1166.71,-0.5 1172.71,-0.5"/>
<text text-anchor="middle" x="1204.17" y="-15.5" font-family="Helvetica,sans-Serif" font-size="10.00">test functions</text>
</g>
<!-- A19&#45;&gt;A20 -->
<g id="edge33" class="edge"><title>A19&#45;&gt;A20</title>
<path fill="none" stroke="black" d="M961.567,-104.379C977.334,-90.1268 1001.11,-70.8427 1025.23,-59.5 1065.09,-40.7563 1114.09,-30.2814 1150.58,-24.6209"/>
<polygon fill="black" stroke="black" points="1160.52,-23.1491 1151.28,-29.0653 1155.57,-23.8815 1150.62,-24.6138 1150.62,-24.6138 1150.62,-24.6138 1155.57,-23.8815 1149.96,-20.1624 1160.52,-23.1491 1160.52,-23.1491"/>
</g>
<!-- A23 -->
<g id="node24" class="node"><title>A23</title>
<path fill="none" stroke="black" d="M1157.14,-190.5C1157.14,-190.5 1251.19,-190.5 1251.19,-190.5 1257.19,-190.5 1263.19,-196.5 1263.19,-202.5 1263.19,-202.5 1263.19,-214.5 1263.19,-214.5 1263.19,-220.5 1257.19,-226.5 1251.19,-226.5 1251.19,-226.5 1157.14,-226.5 1157.14,-226.5 1151.14,-226.5 1145.14,-220.5 1145.14,-214.5 1145.14,-214.5 1145.14,-202.5 1145.14,-202.5 1145.14,-196.5 1151.14,-190.5 1157.14,-190.5"/>
<text text-anchor="middle" x="1204.17" y="-205.5" font-family="Helvetica,sans-Serif" font-size="10.00">candidatelogout.php</text>
</g>
<!-- A19&#45;&gt;A23 -->
<g id="edge37" class="edge"><title>A19&#45;&gt;A23</title>
<path fill="none" stroke="black" d="M1007.6,-130.036C1043.71,-135.659 1088.96,-145.105 1127.14,-160.5 1142.32,-166.618 1157.81,-175.772 1170.82,-184.451"/>
<polygon fill="black" stroke="black" points="1179.39,-190.34 1168.6,-188.387 1175.27,-187.509 1171.15,-184.678 1171.15,-184.678 1171.15,-184.678 1175.27,-187.509 1173.69,-180.969 1179.39,-190.34 1179.39,-190.34"/>
</g>
<!-- A20&#45;&gt;A18 -->
<g id="edge24" class="edge"><title>A20&#45;&gt;A18</title>
<path fill="none" stroke="black" d="M1247.87,-22.8555C1267.81,-26.6965 1290.84,-33.9199 1307.85,-47.5 1342.26,-74.9687 1362.74,-123.255 1372.87,-153.748"/>
<polygon fill="black" stroke="black" points="1375.92,-163.351 1368.61,-155.179 1374.41,-158.585 1372.9,-153.819 1372.9,-153.819 1372.9,-153.819 1374.41,-158.585 1377.19,-152.458 1375.92,-163.351 1375.92,-163.351"/>
<text text-anchor="middle" x="1294.52" y="-50.5" font-family="Helvetica,sans-Serif" font-size="10.00">[error]</text>
</g>
<!-- A21&#45;&gt;A18 -->
<g id="edge25" class="edge"><title>A21&#45;&gt;A18</title>
<path fill="none" stroke="black" d="M814.051,-352.755C910.604,-367.407 1109.82,-386.508 1263.19,-327.5 1316.78,-306.881 1352.36,-245.347 1369.31,-209.08"/>
<polygon fill="black" stroke="black" points="1373.59,-199.576 1373.59,-210.542 1371.54,-204.134 1369.48,-208.692 1369.48,-208.692 1369.48,-208.692 1371.54,-204.134 1365.38,-206.843 1373.59,-199.576 1373.59,-199.576"/>
<text text-anchor="middle" x="1076.19" y="-370.5" font-family="Helvetica,sans-Serif" font-size="10.00">[error]</text>
</g>
<!-- A22 -->
<g id="node23" class="node"><title>A22</title>
<path fill="none" stroke="black" d="M917.313,-284.5C917.313,-284.5 966.324,-284.5 966.324,-284.5 972.324,-284.5 978.324,-290.5 978.324,-296.5 978.324,-296.5 978.324,-308.5 978.324,-308.5 978.324,-314.5 972.324,-320.5 966.324,-320.5 966.324,-320.5 917.313,-320.5 917.313,-320.5 911.313,-320.5 905.313,-314.5 905.313,-308.5 905.313,-308.5 905.313,-296.5 905.313,-296.5 905.313,-290.5 911.313,-284.5 917.313,-284.5"/>
<text text-anchor="middle" x="941.819" y="-299.5" font-family="Helvetica,sans-Serif" font-size="10.00">Verify.php</text>
</g>
<!-- A21&#45;&gt;A22 -->
<g id="edge35" class="edge"><title>A21&#45;&gt;A22</title>
<path fill="none" stroke="black" d="M813.85,-330.063C840.127,-324.359 870.838,-317.692 895.474,-312.344"/>
<polygon fill="black" stroke="black" points="905.283,-310.214 896.465,-316.733 900.397,-311.275 895.511,-312.336 895.511,-312.336 895.511,-312.336 900.397,-311.275 894.556,-307.938 905.283,-310.214 905.283,-310.214"/>
</g>
<!-- A22&#45;&gt;A9 -->
<g id="edge36" class="edge"><title>A22&#45;&gt;A9</title>
<path fill="none" stroke="black" d="M905.138,-301.946C830.147,-300.782 655.108,-298.065 557.94,-296.556"/>
<polygon fill="black" stroke="black" points="547.924,-296.401 557.993,-292.057 552.923,-296.478 557.923,-296.556 557.923,-296.556 557.923,-296.556 552.923,-296.478 557.853,-301.056 547.924,-296.401 547.924,-296.401"/>
</g>
<!-- A22&#45;&gt;A18 -->
<g id="edge26" class="edge"><title>A22&#45;&gt;A18</title>
<path fill="none" stroke="black" d="M978.513,-307.878C1046.88,-316.403 1199.17,-326.687 1307.85,-269.5 1333.59,-255.957 1353.77,-229.079 1366.32,-208.574"/>
<polygon fill="black" stroke="black" points="1371.54,-199.671 1370.36,-210.574 1369.01,-203.984 1366.48,-208.297 1366.48,-208.297 1366.48,-208.297 1369.01,-203.984 1362.6,-206.02 1371.54,-199.671 1371.54,-199.671"/>
<text text-anchor="middle" x="1204.17" y="-314.5" font-family="Helvetica,sans-Serif" font-size="10.00">[error]</text>
</g>
<!-- A23&#45;&gt;A11 -->
<g id="edge38" class="edge"><title>A23&#45;&gt;A11</title>
<path fill="none" stroke="black" d="M1219.76,-226.775C1231.67,-241.828 1248.82,-263.82 1263.19,-283.5 1302.05,-336.745 1345.43,-401.216 1367.03,-433.678"/>
<polygon fill="black" stroke="black" points="1372.76,-442.313 1363.48,-436.472 1370,-438.148 1367.23,-433.982 1367.23,-433.982 1367.23,-433.982 1370,-438.148 1370.98,-431.493 1372.76,-442.313 1372.76,-442.313"/>
</g>
<!-- A23&#45;&gt;A18 -->
<g id="edge27" class="edge"><title>A23&#45;&gt;A18</title>
<path fill="none" stroke="black" d="M1263.65,-199.509C1280.42,-196.932 1298.8,-194.106 1315.93,-191.474"/>
<polygon fill="black" stroke="black" points="1325.84,-189.949 1316.64,-195.916 1320.9,-190.709 1315.96,-191.468 1315.96,-191.468 1315.96,-191.468 1320.9,-190.709 1315.28,-187.021 1325.84,-189.949 1325.84,-189.949"/>
<text text-anchor="middle" x="1294.52" y="-200.5" font-family="Helvetica,sans-Serif" font-size="10.00">[error]</text>
</g>
</g>
</svg>
