<?xml version="1.0" encoding="UTF-8" standalone="no"?>
<!DOCTYPE svg PUBLIC "-//W3C//DTD SVG 1.1//EN"
 "http://www.w3.org/Graphics/SVG/1.1/DTD/svg11.dtd">
<!-- Generated by graphviz version 2.38.0 (20140413.2041)
 -->
<!-- Title: G Pages: 1 -->
<svg width="1026pt" height="468pt"
 viewBox="0.00 0.00 1025.99 468.00" xmlns="http://www.w3.org/2000/svg" xmlns:xlink="http://www.w3.org/1999/xlink">
<g id="graph0" class="graph" transform="scale(1 1) rotate(0) translate(4 464)">
<title>G</title>
<polygon fill="white" stroke="none" points="-4,4 -4,-464 1021.99,-464 1021.99,4 -4,4"/>
<!-- A0 -->
<g id="node1" class="node"><title>A0</title>
<g transform="translate(58.7285,-202)" style="fill:none;stroke:black;stroke-width:1px"><circle cx="0" cy="-20" r="7.5" />
                <line x1="0" y1="-12.5" x2="0" y2="5" />
                <line x1="-15" y1="-5" x2="15" y2="-5" />
                <line x1="0" y1="5" x2="-15" y2="17" />
                <line x1="0" y1="5" x2="15" y2="17" /></g>
<text text-anchor="middle" x="58.7285" y="-177" font-family="Helvetica,sans-Serif" font-size="10.00">Administrator</text>
</g>
<!-- A1 -->
<g id="node2" class="node"><title>A1</title>
<ellipse fill="none" stroke="black" cx="301.629" cy="-219" rx="71.8253" ry="22.7556"/>
<text text-anchor="middle" x="301.629" y="-222" font-family="Helvetica,sans-Serif" font-size="10.00">Send Email Test</text>
<text text-anchor="middle" x="301.629" y="-210" font-family="Helvetica,sans-Serif" font-size="10.00">Page</text>
</g>
<!-- A0&#45;&gt;A1 -->
<g id="edge1" class="edge"><title>A0&#45;&gt;A1</title>
<path fill="none" stroke="black" d="M117.737,-208.371C148.522,-210.16 186.83,-212.387 220.42,-214.339"/>
<polygon fill="none" stroke="black" points="220.494,-217.849 230.68,-214.935 220.9,-210.861 220.494,-217.849"/>
</g>
<!-- A2 -->
<g id="node3" class="node"><title>A2</title>
<ellipse fill="none" stroke="black" cx="301.629" cy="-160" rx="70.0994" ry="18"/>
<text text-anchor="middle" x="301.629" y="-157" font-family="Helvetica,sans-Serif" font-size="10.00">Password Hash tool</text>
</g>
<!-- A0&#45;&gt;A2 -->
<g id="edge2" class="edge"><title>A0&#45;&gt;A2</title>
<path fill="none" stroke="black" d="M117.737,-194.164C152.86,-187.603 197.774,-179.213 234.303,-172.389"/>
<polygon fill="none" stroke="black" points="235.182,-175.786 244.369,-170.509 233.896,-168.905 235.182,-175.786"/>
</g>
<!-- A3 -->
<g id="node4" class="node"><title>A3</title>
<ellipse fill="none" stroke="black" cx="301.629" cy="-278" rx="72.7979" ry="18"/>
<text text-anchor="middle" x="301.629" y="-275" font-family="Helvetica,sans-Serif" font-size="10.00">Admin Landing Page</text>
</g>
<!-- A0&#45;&gt;A3 -->
<g id="edge3" class="edge"><title>A0&#45;&gt;A3</title>
<path fill="none" stroke="black" d="M117.737,-222.578C156.333,-234.274 206.752,-249.553 244.876,-261.105"/>
<polygon fill="none" stroke="black" points="244.199,-264.557 254.784,-264.108 246.229,-257.858 244.199,-264.557"/>
</g>
<!-- A4 -->
<g id="node5" class="node"><title>A4</title>
<ellipse fill="none" stroke="black" cx="301.629" cy="-101" rx="79.2833" ry="22.7556"/>
<text text-anchor="middle" x="301.629" y="-104" font-family="Helvetica,sans-Serif" font-size="10.00">Candidate Landing</text>
<text text-anchor="middle" x="301.629" y="-92" font-family="Helvetica,sans-Serif" font-size="10.00">Page</text>
</g>
<!-- A0&#45;&gt;A4 -->
<g id="edge4" class="edge"><title>A0&#45;&gt;A4</title>
<path fill="none" stroke="black" stroke-dasharray="5,2" d="M117.751,-175.507C125.995,-171.532 134.405,-167.592 142.457,-164 175.463,-149.277 213.021,-134.247 243.255,-122.561"/>
<polygon fill="black" stroke="black" points="252.798,-118.89 245.081,-126.68 248.132,-120.685 243.465,-122.48 243.465,-122.48 243.465,-122.48 248.132,-120.685 241.849,-118.281 252.798,-118.89 252.798,-118.89"/>
<text text-anchor="middle" x="169.972" y="-167" font-family="Helvetica,sans-Serif" font-size="10.00">&lt;&lt;include&gt;&gt;</text>
</g>
<!-- A5 -->
<g id="node6" class="node"><title>A5</title>
<ellipse fill="none" stroke="black" cx="506.189" cy="-314" rx="50.0076" ry="18"/>
<text text-anchor="middle" x="506.189" y="-311" font-family="Helvetica,sans-Serif" font-size="10.00">Admin Login</text>
</g>
<!-- A3&#45;&gt;A5 -->
<g id="edge5" class="edge"><title>A3&#45;&gt;A5</title>
<path fill="none" stroke="black" d="M361.217,-288.413C389.523,-293.443 423.273,-299.442 450.98,-304.366"/>
<polygon fill="none" stroke="black" points="450.434,-307.824 460.893,-306.127 451.659,-300.932 450.434,-307.824"/>
</g>
<!-- A12 -->
<g id="node13" class="node"><title>A12</title>
<ellipse fill="none" stroke="black" cx="506.189" cy="-165" rx="74.3376" ry="22.7556"/>
<text text-anchor="middle" x="506.189" y="-168" font-family="Helvetica,sans-Serif" font-size="10.00">Candidate Forgot</text>
<text text-anchor="middle" x="506.189" y="-156" font-family="Helvetica,sans-Serif" font-size="10.00">Password</text>
</g>
<!-- A4&#45;&gt;A12 -->
<g id="edge13" class="edge"><title>A4&#45;&gt;A12</title>
<path fill="none" stroke="black" d="M355.32,-117.648C382.478,-126.229 415.746,-136.74 444.032,-145.677"/>
<polygon fill="none" stroke="black" points="443.222,-149.092 453.811,-148.767 445.33,-142.417 443.222,-149.092"/>
</g>
<!-- A14 -->
<g id="node15" class="node"><title>A14</title>
<ellipse fill="none" stroke="black" cx="506.189" cy="-68" rx="60.7359" ry="18"/>
<text text-anchor="middle" x="506.189" y="-65" font-family="Helvetica,sans-Serif" font-size="10.00">Candidate Login</text>
</g>
<!-- A4&#45;&gt;A14 -->
<g id="edge16" class="edge"><title>A4&#45;&gt;A14</title>
<path fill="none" stroke="black" d="M370.642,-89.9197C393.969,-86.1193 419.945,-81.8874 442.804,-78.1633"/>
<polygon fill="none" stroke="black" points="443.422,-81.6089 452.729,-76.5464 442.296,-74.7 443.422,-81.6089"/>
</g>
<!-- A6 -->
<g id="node7" class="node"><title>A6</title>
<ellipse fill="none" stroke="black" cx="713.884" cy="-442" rx="64.7325" ry="18"/>
<text text-anchor="middle" x="713.884" y="-439" font-family="Helvetica,sans-Serif" font-size="10.00">Add Administrator</text>
</g>
<!-- A5&#45;&gt;A6 -->
<g id="edge6" class="edge"><title>A5&#45;&gt;A6</title>
<path fill="none" stroke="black" d="M523.851,-330.908C546.447,-352.996 588.91,-391.602 631.608,-415 639.376,-419.257 647.931,-422.995 656.485,-426.225"/>
<polygon fill="none" stroke="black" points="655.506,-429.592 666.101,-429.656 657.859,-422.999 655.506,-429.592"/>
</g>
<!-- A7 -->
<g id="node8" class="node"><title>A7</title>
<ellipse fill="none" stroke="black" cx="713.884" cy="-383" rx="64.9493" ry="22.7556"/>
<text text-anchor="middle" x="713.884" y="-386" font-family="Helvetica,sans-Serif" font-size="10.00">Display</text>
<text text-anchor="middle" x="713.884" y="-374" font-family="Helvetica,sans-Serif" font-size="10.00">Administrators</text>
</g>
<!-- A5&#45;&gt;A7 -->
<g id="edge7" class="edge"><title>A5&#45;&gt;A7</title>
<path fill="none" stroke="black" d="M543.489,-326.177C574.8,-336.68 620.531,-352.02 656.587,-364.115"/>
<polygon fill="none" stroke="black" points="655.886,-367.572 666.48,-367.434 658.113,-360.935 655.886,-367.572"/>
</g>
<!-- A8 -->
<g id="node9" class="node"><title>A8</title>
<ellipse fill="none" stroke="black" cx="713.884" cy="-324" rx="56.7165" ry="18"/>
<text text-anchor="middle" x="713.884" y="-321" font-family="Helvetica,sans-Serif" font-size="10.00">Add Candidate</text>
</g>
<!-- A5&#45;&gt;A8 -->
<g id="edge8" class="edge"><title>A5&#45;&gt;A8</title>
<path fill="none" stroke="black" d="M556.196,-316.383C583.515,-317.711 617.89,-319.382 647.478,-320.82"/>
<polygon fill="none" stroke="black" points="647.567,-324.329 657.725,-321.318 647.907,-317.337 647.567,-324.329"/>
</g>
<!-- A9 -->
<g id="node10" class="node"><title>A9</title>
<ellipse fill="none" stroke="black" cx="713.884" cy="-270" rx="67.7592" ry="18"/>
<text text-anchor="middle" x="713.884" y="-267" font-family="Helvetica,sans-Serif" font-size="10.00">display Candidates</text>
</g>
<!-- A5&#45;&gt;A9 -->
<g id="edge9" class="edge"><title>A5&#45;&gt;A9</title>
<path fill="none" stroke="black" d="M549.809,-304.883C578.922,-298.656 617.977,-290.301 650.568,-283.33"/>
<polygon fill="none" stroke="black" points="651.41,-286.729 660.456,-281.215 649.945,-279.884 651.41,-286.729"/>
</g>
<!-- A10 -->
<g id="node11" class="node"><title>A10</title>
<ellipse fill="none" stroke="black" cx="713.884" cy="-216" rx="53.8657" ry="18"/>
<text text-anchor="middle" x="713.884" y="-213" font-family="Helvetica,sans-Serif" font-size="10.00">Admin Logout</text>
</g>
<!-- A5&#45;&gt;A10 -->
<g id="edge10" class="edge"><title>A5&#45;&gt;A10</title>
<path fill="none" stroke="black" d="M531.225,-298.375C555.752,-282.894 595.268,-259.213 631.608,-243 641.588,-238.547 652.537,-234.426 663.076,-230.812"/>
<polygon fill="none" stroke="black" points="664.217,-234.121 672.6,-227.642 662.006,-227.48 664.217,-234.121"/>
</g>
<!-- A10&#45;&gt;A3 -->
<g id="edge11" class="edge"><title>A10&#45;&gt;A3</title>
<path fill="none" stroke="black" d="M664.535,-223.307C592.666,-234.168 457.202,-254.64 373.936,-267.224"/>
<polygon fill="none" stroke="black" points="373.413,-263.763 364.048,-268.718 374.459,-270.684 373.413,-263.763"/>
</g>
<!-- A11 -->
<g id="node12" class="node"><title>A11</title>
<g transform="translate(58.7285,-98)" style="fill:none;stroke:black;stroke-width:1px"><circle cx="0" cy="-20" r="7.5" />
                <line x1="0" y1="-12.5" x2="0" y2="5" />
                <line x1="-15" y1="-5" x2="15" y2="-5" />
                <line x1="0" y1="5" x2="-15" y2="17" />
                <line x1="0" y1="5" x2="15" y2="17" /></g>
<text text-anchor="middle" x="58.7285" y="-73" font-family="Helvetica,sans-Serif" font-size="10.00">Candidate</text>
</g>
<!-- A11&#45;&gt;A4 -->
<g id="edge12" class="edge"><title>A11&#45;&gt;A4</title>
<path fill="none" stroke="black" d="M110.817,-101C140.106,-101 177.695,-101 211.683,-101"/>
<polygon fill="none" stroke="black" points="212.103,-104.5 222.103,-101 212.103,-97.5001 212.103,-104.5"/>
</g>
<!-- A13 -->
<g id="node14" class="node"><title>A13</title>
<ellipse fill="none" stroke="black" cx="713.884" cy="-143" rx="82.0528" ry="22.7556"/>
<text text-anchor="middle" x="713.884" y="-146" font-family="Helvetica,sans-Serif" font-size="10.00">send new password</text>
<text text-anchor="middle" x="713.884" y="-134" font-family="Helvetica,sans-Serif" font-size="10.00">link</text>
</g>
<!-- A12&#45;&gt;A13 -->
<g id="edge14" class="edge"><title>A12&#45;&gt;A13</title>
<path fill="none" stroke="black" d="M576.541,-157.582C592.574,-155.868 609.826,-154.022 626.488,-152.24"/>
<polygon fill="none" stroke="black" points="627.198,-155.685 636.769,-151.141 626.453,-148.724 627.198,-155.685"/>
</g>
<!-- A13&#45;&gt;A4 -->
<g id="edge15" class="edge"><title>A13&#45;&gt;A4</title>
<path fill="none" stroke="black" d="M636.529,-135.183C565.516,-127.913 459.932,-117.104 386.578,-109.594"/>
<polygon fill="none" stroke="black" points="386.752,-106.094 376.448,-108.557 386.039,-113.058 386.752,-106.094"/>
</g>
<!-- A15 -->
<g id="node16" class="node"><title>A15</title>
<ellipse fill="none" stroke="black" cx="713.884" cy="-70" rx="70.1317" ry="18"/>
<text text-anchor="middle" x="713.884" y="-67" font-family="Helvetica,sans-Serif" font-size="10.00">Login Landing Page</text>
</g>
<!-- A14&#45;&gt;A15 -->
<g id="edge17" class="edge"><title>A14&#45;&gt;A15</title>
<path fill="none" stroke="black" d="M566.961,-68.5812C587.739,-68.7832 611.38,-69.0131 633.494,-69.2281"/>
<polygon fill="none" stroke="black" points="633.497,-72.7282 643.53,-69.3257 633.565,-65.7285 633.497,-72.7282"/>
</g>
<!-- A16 -->
<g id="node17" class="node"><title>A16</title>
<ellipse fill="cornsilk" stroke="black" cx="932.573" cy="-148" rx="85.3258" ry="39.6962"/>
<text text-anchor="middle" x="932.573" y="-163" font-family="Helvetica,sans-Serif" font-size="10.00">Check Account</text>
<text text-anchor="middle" x="932.573" y="-151" font-family="Helvetica,sans-Serif" font-size="10.00">Activation status</text>
<text text-anchor="middle" x="932.573" y="-139" font-family="Helvetica,sans-Serif" font-size="10.00">and display reminder</text>
<text text-anchor="middle" x="932.573" y="-127" font-family="Helvetica,sans-Serif" font-size="10.00">if not activated</text>
</g>
<!-- A15&#45;&gt;A16 -->
<g id="edge18" class="edge"><title>A15&#45;&gt;A16</title>
<path fill="none" stroke="black" d="M755.387,-84.5797C786.011,-95.6032 828.734,-110.982 864.44,-123.835"/>
</g>
<!-- A17 -->
<g id="node18" class="node"><title>A17</title>
<ellipse fill="none" stroke="black" cx="932.573" cy="-18" rx="64.0955" ry="18"/>
<text text-anchor="middle" x="932.573" y="-15" font-family="Helvetica,sans-Serif" font-size="10.00">Candidate Logout</text>
</g>
<!-- A15&#45;&gt;A17 -->
<g id="edge19" class="edge"><title>A15&#45;&gt;A17</title>
<path fill="none" stroke="black" d="M765.688,-57.8083C797.883,-50.0822 839.628,-40.0644 873.186,-32.0113"/>
<polygon fill="none" stroke="black" points="874.411,-35.3168 883.318,-29.5798 872.778,-28.51 874.411,-35.3168"/>
</g>
<!-- A18 -->
<g id="node19" class="node"><title>A18</title>
<ellipse fill="yellowgreen" stroke="black" cx="932.573" cy="-72" rx="42.8003" ry="18"/>
<text text-anchor="middle" x="932.573" y="-69" font-family="Helvetica,sans-Serif" font-size="10.00">Start Test</text>
</g>
<!-- A15&#45;&gt;A18 -->
<g id="edge20" class="edge"><title>A15&#45;&gt;A18</title>
<path fill="none" stroke="black" d="M784.339,-70.6411C815.21,-70.926 850.936,-71.2557 879.466,-71.5191"/>
<polygon fill="none" stroke="black" points="879.596,-75.0203 889.628,-71.6129 879.661,-68.0206 879.596,-75.0203"/>
</g>
<!-- A17&#45;&gt;A4 -->
<g id="edge21" class="edge"><title>A17&#45;&gt;A4</title>
<path fill="none" stroke="black" d="M870.489,-13.3094C775.218,-7.65716 586.156,-3.1439 431.77,-41 401.75,-48.361 370.25,-62.8434 345.875,-75.7353"/>
<polygon fill="none" stroke="black" points="344.037,-72.7499 336.9,-80.5802 347.363,-78.9097 344.037,-72.7499"/>
</g>
</g>
</svg>
