<?xml version="1.0" encoding="UTF-8" standalone="no"?>
<!DOCTYPE svg PUBLIC "-//W3C//DTD SVG 1.1//EN"
 "http://www.w3.org/Graphics/SVG/1.1/DTD/svg11.dtd">
<!-- Generated by graphviz version 2.38.0 (20140413.2041)
 -->
<!-- Title: G Pages: 1 -->
<svg width="1553pt" height="699pt"
 viewBox="0.00 0.00 1552.67 699.02" xmlns="http://www.w3.org/2000/svg" xmlns:xlink="http://www.w3.org/1999/xlink">
<g id="graph0" class="graph" transform="scale(1 1) rotate(0) translate(4 695.019)">
<title>G</title>
<polygon fill="white" stroke="none" points="-4,4 -4,-695.019 1548.67,-695.019 1548.67,4 -4,4"/>
<!-- A0 -->
<g id="node1" class="node"><title>A0</title>
<path fill="none" stroke="black" d="M30.6305,-235.019C30.6305,-235.019 71.2955,-235.019 71.2955,-235.019 77.2955,-235.019 83.2955,-241.019 83.2955,-247.019 83.2955,-247.019 83.2955,-259.019 83.2955,-259.019 83.2955,-265.019 77.2955,-271.019 71.2955,-271.019 71.2955,-271.019 30.6305,-271.019 30.6305,-271.019 24.6305,-271.019 18.6305,-265.019 18.6305,-259.019 18.6305,-259.019 18.6305,-247.019 18.6305,-247.019 18.6305,-241.019 24.6305,-235.019 30.6305,-235.019"/>
<text text-anchor="middle" x="50.963" y="-250.019" font-family="Helvetica,sans-Serif" font-size="10.00">css.html</text>
</g>
<!-- A1 -->
<g id="node2" class="node"><title>A1</title>
<path fill="none" stroke="black" d="M20.0635,-290.019C20.0635,-290.019 81.8625,-290.019 81.8625,-290.019 87.8625,-290.019 93.8625,-296.019 93.8625,-302.019 93.8625,-302.019 93.8625,-314.019 93.8625,-314.019 93.8625,-320.019 87.8625,-326.019 81.8625,-326.019 81.8625,-326.019 20.0635,-326.019 20.0635,-326.019 14.0635,-326.019 8.0635,-320.019 8.0635,-314.019 8.0635,-314.019 8.0635,-302.019 8.0635,-302.019 8.0635,-296.019 14.0635,-290.019 20.0635,-290.019"/>
<text text-anchor="middle" x="50.963" y="-305.019" font-family="Helvetica,sans-Serif" font-size="10.00">admindb.php</text>
</g>
<!-- A2 -->
<g id="node3" class="node"><title>A2</title>
<path fill="none" stroke="black" d="M12,-345.019C12,-345.019 89.926,-345.019 89.926,-345.019 95.926,-345.019 101.926,-351.019 101.926,-357.019 101.926,-357.019 101.926,-369.019 101.926,-369.019 101.926,-375.019 95.926,-381.019 89.926,-381.019 89.926,-381.019 12,-381.019 12,-381.019 6,-381.019 -3.55271e-14,-375.019 -3.55271e-14,-369.019 -3.55271e-14,-369.019 -3.55271e-14,-357.019 -3.55271e-14,-357.019 -3.55271e-14,-351.019 6,-345.019 12,-345.019"/>
<text text-anchor="middle" x="50.963" y="-360.019" font-family="Helvetica,sans-Serif" font-size="10.00">candidatedb.php</text>
</g>
<!-- A3 -->
<g id="node4" class="node"><title>A3</title>
<ellipse fill="none" stroke="black" cx="50.963" cy="-411.019" rx="11" ry="11"/>
</g>
<!-- A4 -->
<g id="node5" class="node"><title>A4</title>
<path fill="none" stroke="black" d="M207.713,-213.019C207.713,-213.019 285.069,-213.019 285.069,-213.019 291.069,-213.019 297.069,-219.019 297.069,-225.019 297.069,-225.019 297.069,-237.019 297.069,-237.019 297.069,-243.019 291.069,-249.019 285.069,-249.019 285.069,-249.019 207.713,-249.019 207.713,-249.019 201.713,-249.019 195.713,-243.019 195.713,-237.019 195.713,-237.019 195.713,-225.019 195.713,-225.019 195.713,-219.019 201.713,-213.019 207.713,-213.019"/>
<text text-anchor="middle" x="246.391" y="-228.019" font-family="Helvetica,sans-Serif" font-size="10.00">admin index.php</text>
</g>
<!-- A3&#45;&gt;A4 -->
<g id="edge1" class="edge"><title>A3&#45;&gt;A4</title>
<path fill="none" stroke="black" d="M61.8182,-408.529C72.3959,-405.539 89.3692,-399.801 101.926,-391.019 155.619,-353.468 203.16,-292.141 227.721,-257.331"/>
<polygon fill="black" stroke="black" points="233.46,-249.082 231.443,-259.861 230.604,-253.187 227.749,-257.291 227.749,-257.291 227.749,-257.291 230.604,-253.187 224.055,-254.721 233.46,-249.082 233.46,-249.082"/>
<text text-anchor="middle" x="148.82" y="-379.019" font-family="Helvetica,sans-Serif" font-size="10.00">[Start Admin]</text>
</g>
<!-- A9 -->
<g id="node10" class="node"><title>A9</title>
<path fill="none" stroke="black" d="M442.156,-532.019C442.156,-532.019 535.639,-532.019 535.639,-532.019 541.639,-532.019 547.639,-538.019 547.639,-544.019 547.639,-544.019 547.639,-556.019 547.639,-556.019 547.639,-562.019 541.639,-568.019 535.639,-568.019 535.639,-568.019 442.156,-568.019 442.156,-568.019 436.156,-568.019 430.156,-562.019 430.156,-556.019 430.156,-556.019 430.156,-544.019 430.156,-544.019 430.156,-538.019 436.156,-532.019 442.156,-532.019"/>
<text text-anchor="middle" x="488.897" y="-547.019" font-family="Helvetica,sans-Serif" font-size="10.00">candidate index.php</text>
</g>
<!-- A3&#45;&gt;A9 -->
<g id="edge31" class="edge"><title>A3&#45;&gt;A9</title>
<path fill="none" stroke="black" d="M61.8872,-414.183C109.203,-429.271 314.031,-494.581 421.5,-528.848"/>
<polygon fill="black" stroke="black" points="431.273,-531.964 420.378,-533.214 426.509,-530.445 421.746,-528.926 421.746,-528.926 421.746,-528.926 426.509,-530.445 423.113,-524.639 431.273,-531.964 431.273,-531.964"/>
<text text-anchor="middle" x="246.391" y="-490.019" font-family="Helvetica,sans-Serif" font-size="10.00">[Start Candidate]</text>
</g>
<!-- A5 -->
<g id="node6" class="node"><title>A5</title>
<path fill="none" stroke="black" d="M446.33,-103.019C446.33,-103.019 531.465,-103.019 531.465,-103.019 537.465,-103.019 543.465,-109.019 543.465,-115.019 543.465,-115.019 543.465,-127.019 543.465,-127.019 543.465,-133.019 537.465,-139.019 531.465,-139.019 531.465,-139.019 446.33,-139.019 446.33,-139.019 440.33,-139.019 434.33,-133.019 434.33,-127.019 434.33,-127.019 434.33,-115.019 434.33,-115.019 434.33,-109.019 440.33,-103.019 446.33,-103.019"/>
<text text-anchor="middle" x="488.897" y="-124.019" font-family="Helvetica,sans-Serif" font-size="10.00">admin</text>
<text text-anchor="middle" x="488.897" y="-112.019" font-family="Helvetica,sans-Serif" font-size="10.00">sendmail_test.php</text>
</g>
<!-- A4&#45;&gt;A5 -->
<g id="edge2" class="edge"><title>A4&#45;&gt;A5</title>
<path fill="none" stroke="black" d="M275.424,-212.915C304.3,-194.862 351.053,-167.262 394.216,-149.019 403.814,-144.963 414.195,-141.242 424.432,-137.928"/>
<polygon fill="black" stroke="black" points="434.172,-134.879 425.973,-142.161 429.4,-136.373 424.629,-137.867 424.629,-137.867 424.629,-137.867 429.4,-136.373 423.284,-133.572 434.172,-134.879 434.172,-134.879"/>
</g>
<!-- A6 -->
<g id="node7" class="node"><title>A6</title>
<path fill="none" stroke="black" d="M406.216,-213.019C406.216,-213.019 571.578,-213.019 571.578,-213.019 577.578,-213.019 583.578,-219.019 583.578,-225.019 583.578,-225.019 583.578,-237.019 583.578,-237.019 583.578,-243.019 577.578,-249.019 571.578,-249.019 571.578,-249.019 406.216,-249.019 406.216,-249.019 400.216,-249.019 394.216,-243.019 394.216,-237.019 394.216,-237.019 394.216,-225.019 394.216,-225.019 394.216,-219.019 400.216,-213.019 406.216,-213.019"/>
<text text-anchor="middle" x="442.114" y="-234.019" font-family="Helvetica,sans-Serif" font-size="10.00">admin</text>
<text text-anchor="middle" x="442.114" y="-222.019" font-family="Helvetica,sans-Serif" font-size="10.00">adminlogin.php</text>
<polyline fill="none" stroke="black" points="490.012,-213.019 490.012,-249.019 "/>
<text text-anchor="middle" x="536.795" y="-228.019" font-family="Helvetica,sans-Serif" font-size="10.00">Validate Fields</text>
</g>
<!-- A4&#45;&gt;A6 -->
<g id="edge3" class="edge"><title>A4&#45;&gt;A6</title>
<path fill="none" stroke="black" d="M297.224,-231.019C322.318,-231.019 353.729,-231.019 383.772,-231.019"/>
<polygon fill="black" stroke="black" points="393.897,-231.019 383.897,-235.519 388.897,-231.019 383.897,-231.019 383.897,-231.019 383.897,-231.019 388.897,-231.019 383.897,-226.519 393.897,-231.019 393.897,-231.019"/>
<text text-anchor="middle" x="345.643" y="-234.019" font-family="Helvetica,sans-Serif" font-size="10.00">[notLoggedIn]</text>
</g>
<!-- A7 -->
<g id="node8" class="node"><title>A7</title>
<path fill="none" stroke="black" d="M710.212,-254.019C710.212,-254.019 800.906,-254.019 800.906,-254.019 806.906,-254.019 812.906,-260.019 812.906,-266.019 812.906,-266.019 812.906,-278.019 812.906,-278.019 812.906,-284.019 806.906,-290.019 800.906,-290.019 800.906,-290.019 710.212,-290.019 710.212,-290.019 704.212,-290.019 698.212,-284.019 698.212,-278.019 698.212,-278.019 698.212,-266.019 698.212,-266.019 698.212,-260.019 704.212,-254.019 710.212,-254.019"/>
<text text-anchor="middle" x="755.559" y="-269.019" font-family="Helvetica,sans-Serif" font-size="10.00">adminfunctions.php</text>
</g>
<!-- A4&#45;&gt;A7 -->
<g id="edge4" class="edge"><title>A4&#45;&gt;A7</title>
<path fill="none" stroke="black" d="M297.187,-243.278C303.197,-244.614 309.261,-245.894 315.069,-247.019 349.998,-253.784 358.805,-255.576 394.216,-259.019 496.211,-268.936 615.108,-271.486 687.585,-272.035"/>
<polygon fill="black" stroke="black" points="697.934,-272.102 687.905,-276.537 692.934,-272.07 687.934,-272.037 687.934,-272.037 687.934,-272.037 692.934,-272.07 687.963,-267.538 697.934,-272.102 697.934,-272.102"/>
<text text-anchor="middle" x="488.897" y="-272.019" font-family="Helvetica,sans-Serif" font-size="10.00">[AlreadyLoggedIn]</text>
</g>
<!-- A8 -->
<g id="node9" class="node"><title>A8</title>
<path fill="none" stroke="black" d="M432.987,-158.019C432.987,-158.019 544.807,-158.019 544.807,-158.019 550.807,-158.019 556.807,-164.019 556.807,-170.019 556.807,-170.019 556.807,-182.019 556.807,-182.019 556.807,-188.019 550.807,-194.019 544.807,-194.019 544.807,-194.019 432.987,-194.019 432.987,-194.019 426.987,-194.019 420.987,-188.019 420.987,-182.019 420.987,-182.019 420.987,-170.019 420.987,-170.019 420.987,-164.019 426.987,-158.019 432.987,-158.019"/>
<text text-anchor="middle" x="488.897" y="-179.019" font-family="Helvetica,sans-Serif" font-size="10.00">admin</text>
<text text-anchor="middle" x="488.897" y="-167.019" font-family="Helvetica,sans-Serif" font-size="10.00">admingeneratehash.php</text>
</g>
<!-- A4&#45;&gt;A8 -->
<g id="edge5" class="edge"><title>A4&#45;&gt;A8</title>
<path fill="none" stroke="black" d="M297.224,-219.623C330.063,-212.113 373.719,-202.13 410.972,-193.611"/>
<polygon fill="black" stroke="black" points="420.793,-191.365 412.048,-197.981 415.919,-192.479 411.044,-193.594 411.044,-193.594 411.044,-193.594 415.919,-192.479 410.041,-189.207 420.793,-191.365 420.793,-191.365"/>
</g>
<!-- A4&#45;&gt;A9 -->
<g id="edge6" class="edge"><title>A4&#45;&gt;A9</title>
<path fill="none" stroke="black" d="M261.011,-249.084C303.243,-305.1 431.695,-475.474 474.129,-531.757"/>
</g>
<!-- A6&#45;&gt;A7 -->
<g id="edge9" class="edge"><title>A6&#45;&gt;A7</title>
<path fill="none" stroke="black" d="M583.579,-245.532C618.064,-250.874 656.386,-256.811 687.995,-261.707"/>
<polygon fill="black" stroke="black" points="698.009,-263.259 687.438,-266.175 693.068,-262.493 688.127,-261.728 688.127,-261.728 688.127,-261.728 693.068,-262.493 688.816,-257.281 698.009,-263.259 698.009,-263.259"/>
</g>
<!-- A18 -->
<g id="node19" class="node"><title>A18</title>
<path fill="none" stroke="black" d="M1275.18,-182.019C1275.18,-182.019 1346.96,-182.019 1346.96,-182.019 1352.96,-182.019 1358.96,-188.019 1358.96,-194.019 1358.96,-194.019 1358.96,-206.019 1358.96,-206.019 1358.96,-212.019 1352.96,-218.019 1346.96,-218.019 1346.96,-218.019 1275.18,-218.019 1275.18,-218.019 1269.18,-218.019 1263.18,-212.019 1263.18,-206.019 1263.18,-206.019 1263.18,-194.019 1263.18,-194.019 1263.18,-188.019 1269.18,-182.019 1275.18,-182.019"/>
<text text-anchor="middle" x="1311.07" y="-197.019" font-family="Helvetica,sans-Serif" font-size="10.00">adminerror.php</text>
</g>
<!-- A6&#45;&gt;A18 -->
<g id="edge17" class="edge"><title>A6&#45;&gt;A18</title>
<path fill="none" stroke="black" d="M557.636,-212.968C566.439,-210.193 575.276,-207.188 583.578,-204.019 718.527,-152.502 735.581,-95.158 876.408,-63.0191 1032.39,-27.4217 1103.39,-11.6794 1234.05,-104.019 1259.87,-122.271 1281.35,-151.724 1294.82,-173.199"/>
<polygon fill="black" stroke="black" points="1300.09,-181.858 1291.05,-175.655 1297.49,-177.587 1294.89,-173.316 1294.89,-173.316 1294.89,-173.316 1297.49,-177.587 1298.73,-170.976 1300.09,-181.858 1300.09,-181.858"/>
<text text-anchor="middle" x="845.077" y="-78.0191" font-family="Helvetica,sans-Serif" font-size="10.00">[error]</text>
</g>
<!-- A10 -->
<g id="node11" class="node"><title>A10</title>
<path fill="none" stroke="black" d="M1144.13,-385.019C1144.13,-385.019 1222.05,-385.019 1222.05,-385.019 1228.05,-385.019 1234.05,-391.019 1234.05,-397.019 1234.05,-397.019 1234.05,-409.019 1234.05,-409.019 1234.05,-415.019 1228.05,-421.019 1222.05,-421.019 1222.05,-421.019 1144.13,-421.019 1144.13,-421.019 1138.13,-421.019 1132.13,-415.019 1132.13,-409.019 1132.13,-409.019 1132.13,-397.019 1132.13,-397.019 1132.13,-391.019 1138.13,-385.019 1144.13,-385.019"/>
<text text-anchor="middle" x="1183.09" y="-400.019" font-family="Helvetica,sans-Serif" font-size="10.00">adminlogout.php</text>
</g>
<!-- A7&#45;&gt;A10 -->
<g id="edge7" class="edge"><title>A7&#45;&gt;A10</title>
<path fill="none" stroke="black" d="M762.757,-290.02C776.494,-326.714 813.372,-409.438 876.408,-442.019 970.268,-490.532 1015.37,-479.567 1114.13,-442.019 1122.18,-438.958 1123.13,-434.256 1132.18,-426.892"/>
<polygon fill="black" stroke="black" points="1140.41,-421.046 1134.86,-430.504 1136.34,-423.94 1132.26,-426.835 1132.26,-426.835 1132.26,-426.835 1136.34,-423.94 1129.65,-423.166 1140.41,-421.046 1140.41,-421.046"/>
</g>
<!-- A12 -->
<g id="node13" class="node"><title>A12</title>
<path fill="none" stroke="black" d="M961.592,-127.019C961.592,-127.019 1028.95,-127.019 1028.95,-127.019 1034.95,-127.019 1040.95,-133.019 1040.95,-139.019 1040.95,-139.019 1040.95,-151.019 1040.95,-151.019 1040.95,-157.019 1034.95,-163.019 1028.95,-163.019 1028.95,-163.019 961.592,-163.019 961.592,-163.019 955.592,-163.019 949.592,-157.019 949.592,-151.019 949.592,-151.019 949.592,-139.019 949.592,-139.019 949.592,-133.019 955.592,-127.019 961.592,-127.019"/>
<text text-anchor="middle" x="995.271" y="-142.019" font-family="Helvetica,sans-Serif" font-size="10.00">adminadd.php</text>
</g>
<!-- A7&#45;&gt;A12 -->
<g id="edge10" class="edge"><title>A7&#45;&gt;A12</title>
<path fill="none" stroke="black" d="M767.495,-253.983C780.395,-234.274 803.675,-203.219 831.745,-186.019 864.35,-166.04 906.305,-155.769 939.42,-150.504"/>
<polygon fill="black" stroke="black" points="949.394,-149.025 940.162,-154.943 944.448,-149.758 939.502,-150.492 939.502,-150.492 939.502,-150.492 944.448,-149.758 938.842,-146.04 949.394,-149.025 949.394,-149.025"/>
</g>
<!-- A13 -->
<g id="node14" class="node"><title>A13</title>
<path fill="none" stroke="black" d="M954.373,-72.0191C954.373,-72.0191 1036.17,-72.0191 1036.17,-72.0191 1042.17,-72.0191 1048.17,-78.0191 1048.17,-84.0191 1048.17,-84.0191 1048.17,-96.0191 1048.17,-96.0191 1048.17,-102.019 1042.17,-108.019 1036.17,-108.019 1036.17,-108.019 954.373,-108.019 954.373,-108.019 948.373,-108.019 942.373,-102.019 942.373,-96.0191 942.373,-96.0191 942.373,-84.0191 942.373,-84.0191 942.373,-78.0191 948.373,-72.0191 954.373,-72.0191"/>
<text text-anchor="middle" x="995.271" y="-87.0191" font-family="Helvetica,sans-Serif" font-size="10.00">admindisplay.php</text>
</g>
<!-- A7&#45;&gt;A13 -->
<g id="edge11" class="edge"><title>A7&#45;&gt;A13</title>
<path fill="none" stroke="black" d="M764.967,-253.995C781.344,-221.069 820.842,-151.508 876.408,-118.019 893.204,-107.896 913.401,-101.433 932.292,-97.3064"/>
<polygon fill="black" stroke="black" points="942.325,-95.3002 933.401,-101.674 937.422,-96.2807 932.519,-97.2613 932.519,-97.2613 932.519,-97.2613 937.422,-96.2807 931.636,-92.8486 942.325,-95.3002 942.325,-95.3002"/>
</g>
<!-- A14 -->
<g id="node15" class="node"><title>A14</title>
<path fill="none" stroke="black" d="M888.408,-396.019C888.408,-396.019 1102.13,-396.019 1102.13,-396.019 1108.13,-396.019 1114.13,-402.019 1114.13,-408.019 1114.13,-408.019 1114.13,-420.019 1114.13,-420.019 1114.13,-426.019 1108.13,-432.019 1102.13,-432.019 1102.13,-432.019 888.408,-432.019 888.408,-432.019 882.408,-432.019 876.408,-426.019 876.408,-420.019 876.408,-420.019 876.408,-408.019 876.408,-408.019 876.408,-402.019 882.408,-396.019 888.408,-396.019"/>
<text text-anchor="middle" x="937.369" y="-411.019" font-family="Helvetica,sans-Serif" font-size="10.00">admindaddtester.php</text>
<polyline fill="none" stroke="black" points="998.33,-396.019 998.33,-432.019 "/>
<text text-anchor="middle" x="1056.23" y="-417.019" font-family="Helvetica,sans-Serif" font-size="10.00">Generate Activation</text>
<text text-anchor="middle" x="1056.23" y="-405.019" font-family="Helvetica,sans-Serif" font-size="10.00">Email to user</text>
</g>
<!-- A7&#45;&gt;A14 -->
<g id="edge12" class="edge"><title>A7&#45;&gt;A14</title>
<path fill="none" stroke="black" d="M770.236,-290.318C790.489,-316.045 830.986,-362.5 876.408,-387.019 879.745,-388.82 883.197,-390.502 886.733,-392.071"/>
<polygon fill="black" stroke="black" points="896.262,-395.97 885.303,-396.348 891.635,-394.077 887.007,-392.183 887.007,-392.183 887.007,-392.183 891.635,-394.077 888.711,-388.018 896.262,-395.97 896.262,-395.97"/>
</g>
<!-- A15 -->
<g id="node16" class="node"><title>A15</title>
<path fill="none" stroke="black" d="M941.87,-341.019C941.87,-341.019 1048.67,-341.019 1048.67,-341.019 1054.67,-341.019 1060.67,-347.019 1060.67,-353.019 1060.67,-353.019 1060.67,-365.019 1060.67,-365.019 1060.67,-371.019 1054.67,-377.019 1048.67,-377.019 1048.67,-377.019 941.87,-377.019 941.87,-377.019 935.87,-377.019 929.87,-371.019 929.87,-365.019 929.87,-365.019 929.87,-353.019 929.87,-353.019 929.87,-347.019 935.87,-341.019 941.87,-341.019"/>
<text text-anchor="middle" x="995.271" y="-356.019" font-family="Helvetica,sans-Serif" font-size="10.00">admindisplatesters.php</text>
</g>
<!-- A7&#45;&gt;A15 -->
<g id="edge13" class="edge"><title>A7&#45;&gt;A15</title>
<path fill="none" stroke="black" d="M787.692,-290.198C811.364,-303.372 845.09,-320.776 876.408,-332.019 890.214,-336.975 905.264,-341.238 919.85,-344.815"/>
<polygon fill="black" stroke="black" points="929.854,-347.183 919.086,-349.259 924.988,-346.031 920.123,-344.88 920.123,-344.88 920.123,-344.88 924.988,-346.031 921.159,-340.501 929.854,-347.183 929.854,-347.183"/>
</g>
<!-- A16 -->
<g id="node17" class="node"><title>A16</title>
<path fill="none" stroke="black" d="M940.195,-286.019C940.195,-286.019 1050.35,-286.019 1050.35,-286.019 1056.35,-286.019 1062.35,-292.019 1062.35,-298.019 1062.35,-298.019 1062.35,-310.019 1062.35,-310.019 1062.35,-316.019 1056.35,-322.019 1050.35,-322.019 1050.35,-322.019 940.195,-322.019 940.195,-322.019 934.195,-322.019 928.195,-316.019 928.195,-310.019 928.195,-310.019 928.195,-298.019 928.195,-298.019 928.195,-292.019 934.195,-286.019 940.195,-286.019"/>
<text text-anchor="middle" x="995.271" y="-301.019" font-family="Helvetica,sans-Serif" font-size="10.00">adminaddquestions.php</text>
</g>
<!-- A7&#45;&gt;A16 -->
<g id="edge14" class="edge"><title>A7&#45;&gt;A16</title>
<path fill="none" stroke="black" d="M813.195,-279.643C844.566,-283.866 883.992,-289.174 918.039,-293.757"/>
<polygon fill="black" stroke="black" points="927.952,-295.091 917.441,-298.217 922.996,-294.424 918.041,-293.757 918.041,-293.757 918.041,-293.757 922.996,-294.424 918.641,-289.297 927.952,-295.091 927.952,-295.091"/>
</g>
<!-- A17 -->
<g id="node18" class="node"><title>A17</title>
<path fill="none" stroke="black" d="M938.535,-231.019C938.535,-231.019 1052.01,-231.019 1052.01,-231.019 1058.01,-231.019 1064.01,-237.019 1064.01,-243.019 1064.01,-243.019 1064.01,-255.019 1064.01,-255.019 1064.01,-261.019 1058.01,-267.019 1052.01,-267.019 1052.01,-267.019 938.535,-267.019 938.535,-267.019 932.535,-267.019 926.535,-261.019 926.535,-255.019 926.535,-255.019 926.535,-243.019 926.535,-243.019 926.535,-237.019 932.535,-231.019 938.535,-231.019"/>
<text text-anchor="middle" x="995.271" y="-246.019" font-family="Helvetica,sans-Serif" font-size="10.00">adminviewquestions.php</text>
</g>
<!-- A7&#45;&gt;A17 -->
<g id="edge15" class="edge"><title>A7&#45;&gt;A17</title>
<path fill="none" stroke="black" d="M813.195,-266.539C843.934,-263.565 882.406,-259.843 915.974,-256.595"/>
<polygon fill="black" stroke="black" points="926.22,-255.603 916.7,-261.046 921.243,-256.085 916.266,-256.567 916.266,-256.567 916.266,-256.567 921.243,-256.085 915.833,-252.087 926.22,-255.603 926.22,-255.603"/>
</g>
<!-- A7&#45;&gt;A18 -->
<g id="edge16" class="edge"><title>A7&#45;&gt;A18</title>
<path fill="none" stroke="black" d="M782.746,-254.001C806.126,-239.041 841.909,-218.837 876.408,-210.019 1007.74,-176.453 1168.77,-185.144 1252.82,-193.264"/>
<polygon fill="black" stroke="black" points="1262.92,-194.273 1252.52,-197.757 1257.95,-193.776 1252.97,-193.279 1252.97,-193.279 1252.97,-193.279 1257.95,-193.776 1253.42,-188.801 1262.92,-194.273 1262.92,-194.273"/>
<text text-anchor="middle" x="995.271" y="-213.019" font-family="Helvetica,sans-Serif" font-size="10.00">[error]</text>
</g>
<!-- A19 -->
<g id="node20" class="node"><title>A19</title>
<path fill="none" stroke="black" d="M711.598,-532.019C711.598,-532.019 799.521,-532.019 799.521,-532.019 805.521,-532.019 811.521,-538.019 811.521,-544.019 811.521,-544.019 811.521,-556.019 811.521,-556.019 811.521,-562.019 805.521,-568.019 799.521,-568.019 799.521,-568.019 711.598,-568.019 711.598,-568.019 705.598,-568.019 699.598,-562.019 699.598,-556.019 699.598,-556.019 699.598,-544.019 699.598,-544.019 699.598,-538.019 705.598,-532.019 711.598,-532.019"/>
<text text-anchor="middle" x="755.559" y="-547.019" font-family="Helvetica,sans-Serif" font-size="10.00">candidatelogin.php</text>
</g>
<!-- A9&#45;&gt;A19 -->
<g id="edge32" class="edge"><title>A9&#45;&gt;A19</title>
<path fill="none" stroke="black" d="M547.651,-550.019C589.331,-550.019 645.665,-550.019 689.028,-550.019"/>
<polygon fill="black" stroke="black" points="699.193,-550.019 689.193,-554.519 694.193,-550.019 689.193,-550.019 689.193,-550.019 689.193,-550.019 694.193,-550.019 689.193,-545.519 699.193,-550.019 699.193,-550.019"/>
<text text-anchor="middle" x="640.476" y="-553.019" font-family="Helvetica,sans-Serif" font-size="10.00">[notLoggedIn]</text>
</g>
<!-- A21 -->
<g id="node22" class="node"><title>A21</title>
<path fill="none" stroke="black" d="M941.86,-490.019C941.86,-490.019 1048.68,-490.019 1048.68,-490.019 1054.68,-490.019 1060.68,-496.019 1060.68,-502.019 1060.68,-502.019 1060.68,-514.019 1060.68,-514.019 1060.68,-520.019 1054.68,-526.019 1048.68,-526.019 1048.68,-526.019 941.86,-526.019 941.86,-526.019 935.86,-526.019 929.86,-520.019 929.86,-514.019 929.86,-514.019 929.86,-502.019 929.86,-502.019 929.86,-496.019 935.86,-490.019 941.86,-490.019"/>
<text text-anchor="middle" x="995.271" y="-505.019" font-family="Helvetica,sans-Serif" font-size="10.00">candidatefunctions.php</text>
</g>
<!-- A9&#45;&gt;A21 -->
<g id="edge34" class="edge"><title>A9&#45;&gt;A21</title>
<path fill="none" stroke="black" d="M548.079,-536.247C589.454,-527.151 646.49,-516.019 697.373,-511.019 772.782,-503.609 859.481,-503.719 919.641,-505.157"/>
<polygon fill="black" stroke="black" points="929.808,-505.419 919.696,-509.66 924.81,-505.29 919.812,-505.161 919.812,-505.161 919.812,-505.161 924.81,-505.29 919.927,-500.663 929.808,-505.419 929.808,-505.419"/>
<text text-anchor="middle" x="755.559" y="-514.019" font-family="Helvetica,sans-Serif" font-size="10.00">[AlreadyLoggedIn]</text>
</g>
<!-- A23 -->
<g id="node24" class="node"><title>A23</title>
<path fill="none" stroke="black" d="M709.373,-626.019C709.373,-626.019 801.745,-626.019 801.745,-626.019 807.745,-626.019 813.745,-632.019 813.745,-638.019 813.745,-638.019 813.745,-650.019 813.745,-650.019 813.745,-656.019 807.745,-662.019 801.745,-662.019 801.745,-662.019 709.373,-662.019 709.373,-662.019 703.373,-662.019 697.373,-656.019 697.373,-650.019 697.373,-650.019 697.373,-638.019 697.373,-638.019 697.373,-632.019 703.373,-626.019 709.373,-626.019"/>
<text text-anchor="middle" x="755.559" y="-641.019" font-family="Helvetica,sans-Serif" font-size="10.00">candidateforgot.php</text>
</g>
<!-- A9&#45;&gt;A23 -->
<g id="edge36" class="edge"><title>A9&#45;&gt;A23</title>
<path fill="none" stroke="black" d="M517.745,-568.178C539.713,-581.762 571.554,-599.849 601.578,-611.019 628.787,-621.142 659.933,-628.564 686.99,-633.776"/>
<polygon fill="black" stroke="black" points="697.143,-635.666 686.488,-638.259 692.228,-634.751 687.312,-633.835 687.312,-633.835 687.312,-633.835 692.228,-634.751 688.136,-629.411 697.143,-635.666 697.143,-635.666"/>
<text text-anchor="middle" x="640.476" y="-635.019" font-family="Helvetica,sans-Serif" font-size="10.00">[forgot Password]</text>
</g>
<!-- A11 -->
<g id="node12" class="node"><title>A11</title>
<ellipse fill="none" stroke="black" cx="1488.71" cy="-380.019" rx="11" ry="11"/>
<ellipse fill="none" stroke="black" cx="1488.71" cy="-380.019" rx="15" ry="15"/>
</g>
<!-- A10&#45;&gt;A11 -->
<g id="edge8" class="edge"><title>A10&#45;&gt;A11</title>
<path fill="none" stroke="black" d="M1234.18,-385.759C1240.14,-384.236 1246.19,-382.929 1252.05,-382.019 1328.48,-370.147 1420.54,-374.718 1463.46,-377.922"/>
<polygon fill="black" stroke="black" points="1473.52,-378.715 1463.19,-382.414 1468.53,-378.322 1463.55,-377.928 1463.55,-377.928 1463.55,-377.928 1468.53,-378.322 1463.9,-373.442 1473.52,-378.715 1473.52,-378.715"/>
</g>
<!-- A12&#45;&gt;A18 -->
<g id="edge18" class="edge"><title>A12&#45;&gt;A18</title>
<path fill="none" stroke="black" d="M1041.01,-147.688C1089.17,-151.206 1167.77,-158.819 1234.05,-174.019 1240.29,-175.452 1246.75,-177.207 1253.13,-179.124"/>
<polygon fill="black" stroke="black" points="1263.06,-182.245 1252.17,-183.541 1258.29,-180.746 1253.52,-179.247 1253.52,-179.247 1253.52,-179.247 1258.29,-180.746 1254.87,-174.954 1263.06,-182.245 1263.06,-182.245"/>
<text text-anchor="middle" x="1183.09" y="-177.019" font-family="Helvetica,sans-Serif" font-size="10.00">[error]</text>
</g>
<!-- A13&#45;&gt;A18 -->
<g id="edge19" class="edge"><title>A13&#45;&gt;A18</title>
<path fill="none" stroke="black" d="M1048.49,-94.4517C1098.14,-100.203 1173.95,-113.047 1234.05,-141.019 1252.28,-149.506 1270.17,-163.056 1284.02,-175.032"/>
<polygon fill="black" stroke="black" points="1291.67,-181.851 1281.21,-178.559 1287.94,-178.525 1284.21,-175.199 1284.21,-175.199 1284.21,-175.199 1287.94,-178.525 1287.2,-171.839 1291.67,-181.851 1291.67,-181.851"/>
<text text-anchor="middle" x="1183.09" y="-144.019" font-family="Helvetica,sans-Serif" font-size="10.00">[error]</text>
</g>
<!-- A14&#45;&gt;A18 -->
<g id="edge20" class="edge"><title>A14&#45;&gt;A18</title>
<path fill="none" stroke="black" d="M1097.23,-395.94C1103.13,-393.352 1108.82,-390.396 1114.13,-387.019 1125.09,-380.058 1121.13,-370.911 1132.13,-364.019 1171.4,-339.417 1197.04,-369.913 1234.05,-342.019 1271.93,-313.465 1292.99,-260.399 1302.88,-227.847"/>
<polygon fill="black" stroke="black" points="1305.71,-218.055 1307.26,-228.911 1304.33,-222.859 1302.94,-227.663 1302.94,-227.663 1302.94,-227.663 1304.33,-222.859 1298.61,-226.414 1305.71,-218.055 1305.71,-218.055"/>
<text text-anchor="middle" x="1183.09" y="-367.019" font-family="Helvetica,sans-Serif" font-size="10.00">[error]</text>
</g>
<!-- A15&#45;&gt;A18 -->
<g id="edge21" class="edge"><title>A15&#45;&gt;A18</title>
<path fill="none" stroke="black" d="M1060.7,-345.756C1121.01,-332.478 1205.93,-311.302 1234.05,-292.019 1259.06,-274.871 1280.31,-247.264 1293.94,-226.759"/>
<polygon fill="black" stroke="black" points="1299.47,-218.18 1297.83,-229.023 1296.76,-222.382 1294.05,-226.583 1294.05,-226.583 1294.05,-226.583 1296.76,-222.382 1290.27,-224.144 1299.47,-218.18 1299.47,-218.18"/>
<text text-anchor="middle" x="1183.09" y="-330.019" font-family="Helvetica,sans-Serif" font-size="10.00">[error]</text>
</g>
<!-- A16&#45;&gt;A18 -->
<g id="edge22" class="edge"><title>A16&#45;&gt;A18</title>
<path fill="none" stroke="black" d="M1062.35,-293.302C1111.06,-284.056 1178.27,-268.448 1234.05,-245.019 1247.93,-239.189 1262.34,-231.212 1274.84,-223.593"/>
<polygon fill="black" stroke="black" points="1283.57,-218.144 1277.47,-227.258 1279.33,-220.793 1275.09,-223.441 1275.09,-223.441 1275.09,-223.441 1279.33,-220.793 1272.7,-219.624 1283.57,-218.144 1283.57,-218.144"/>
<text text-anchor="middle" x="1183.09" y="-279.019" font-family="Helvetica,sans-Serif" font-size="10.00">[error]</text>
</g>
<!-- A17&#45;&gt;A18 -->
<g id="edge23" class="edge"><title>A17&#45;&gt;A18</title>
<path fill="none" stroke="black" d="M1064.02,-239.708C1111.65,-233 1176.83,-223.496 1234.05,-214.019 1240.22,-212.997 1246.66,-211.884 1253.07,-210.746"/>
<polygon fill="black" stroke="black" points="1263.07,-208.947 1254.03,-215.145 1258.15,-209.832 1253.23,-210.717 1253.23,-210.717 1253.23,-210.717 1258.15,-209.832 1252.44,-206.288 1263.07,-208.947 1263.07,-208.947"/>
<text text-anchor="middle" x="1183.09" y="-232.019" font-family="Helvetica,sans-Serif" font-size="10.00">[error]</text>
</g>
<!-- A18&#45;&gt;A4 -->
<g id="edge24" class="edge"><title>A18&#45;&gt;A4</title>
<path fill="none" stroke="black" d="M1306.79,-181.993C1299.77,-149.043 1280.06,-79.3299 1234.05,-45.0191 1148.14,19.042 1103.43,-5.0191 996.271,-5.0191 487.897,-5.0191 487.897,-5.0191 487.897,-5.0191 373.105,-5.0191 290.684,-143.437 260.273,-203.62"/>
<polygon fill="black" stroke="black" points="255.681,-212.907 256.08,-201.948 257.897,-208.425 260.114,-203.943 260.114,-203.943 260.114,-203.943 257.897,-208.425 264.147,-205.937 255.681,-212.907 255.681,-212.907"/>
</g>
<!-- A20 -->
<g id="node21" class="node"><title>A20</title>
<path fill="none" stroke="black" d="M1444.75,-565.019C1444.75,-565.019 1532.67,-565.019 1532.67,-565.019 1538.67,-565.019 1544.67,-571.019 1544.67,-577.019 1544.67,-577.019 1544.67,-589.019 1544.67,-589.019 1544.67,-595.019 1538.67,-601.019 1532.67,-601.019 1532.67,-601.019 1444.75,-601.019 1444.75,-601.019 1438.75,-601.019 1432.75,-595.019 1432.75,-589.019 1432.75,-589.019 1432.75,-577.019 1432.75,-577.019 1432.75,-571.019 1438.75,-565.019 1444.75,-565.019"/>
<text text-anchor="middle" x="1488.71" y="-580.019" font-family="Helvetica,sans-Serif" font-size="10.00">candidateerror.php</text>
</g>
<!-- A19&#45;&gt;A20 -->
<g id="edge25" class="edge"><title>A19&#45;&gt;A20</title>
<path fill="none" stroke="black" d="M811.814,-552.513C944.395,-558.497 1280.08,-573.648 1422.36,-580.07"/>
<polygon fill="black" stroke="black" points="1432.68,-580.535 1422.48,-584.58 1427.68,-580.31 1422.69,-580.084 1422.69,-580.084 1422.69,-580.084 1427.68,-580.31 1422.89,-575.589 1432.68,-580.535 1432.68,-580.535"/>
<text text-anchor="middle" x="1183.09" y="-574.019" font-family="Helvetica,sans-Serif" font-size="10.00">[error]</text>
</g>
<!-- A19&#45;&gt;A21 -->
<g id="edge33" class="edge"><title>A19&#45;&gt;A21</title>
<path fill="none" stroke="black" d="M811.692,-540.278C843.774,-534.61 884.649,-527.388 919.588,-521.214"/>
<polygon fill="black" stroke="black" points="929.746,-519.42 920.682,-525.591 924.823,-520.29 919.899,-521.159 919.899,-521.159 919.899,-521.159 924.823,-520.29 919.116,-516.728 929.746,-519.42 929.746,-519.42"/>
</g>
<!-- A20&#45;&gt;A9 -->
<g id="edge30" class="edge"><title>A20&#45;&gt;A9</title>
<path fill="none" stroke="black" d="M1471.82,-601.34C1443.22,-632.153 1379.72,-691.019 1312.07,-691.019 754.559,-691.019 754.559,-691.019 754.559,-691.019 683.933,-691.019 663.656,-681.701 601.578,-648.019 566.896,-629.201 533.787,-597.883 512.754,-575.721"/>
<polygon fill="black" stroke="black" points="505.835,-568.299 515.945,-572.545 509.244,-571.956 512.654,-575.614 512.654,-575.614 512.654,-575.614 509.244,-571.956 509.362,-578.682 505.835,-568.299 505.835,-568.299"/>
</g>
<!-- A21&#45;&gt;A20 -->
<g id="edge26" class="edge"><title>A21&#45;&gt;A20</title>
<path fill="none" stroke="black" d="M1060.73,-495.218C1152.41,-478.187 1315.41,-452.579 1370.09,-474.019 1412.19,-490.526 1448.21,-529.964 1468.93,-556.59"/>
<polygon fill="black" stroke="black" points="1475.1,-564.74 1465.47,-559.487 1472.08,-560.755 1469.06,-556.77 1469.06,-556.77 1469.06,-556.77 1472.08,-560.755 1472.65,-554.052 1475.1,-564.74 1475.1,-564.74"/>
<text text-anchor="middle" x="1311.07" y="-477.019" font-family="Helvetica,sans-Serif" font-size="10.00">[error]</text>
</g>
<!-- A22 -->
<g id="node23" class="node"><title>A22</title>
<path fill="none" stroke="black" d="M1279.61,-495.019C1279.61,-495.019 1342.52,-495.019 1342.52,-495.019 1348.52,-495.019 1354.52,-501.019 1354.52,-507.019 1354.52,-507.019 1354.52,-519.019 1354.52,-519.019 1354.52,-525.019 1348.52,-531.019 1342.52,-531.019 1342.52,-531.019 1279.61,-531.019 1279.61,-531.019 1273.61,-531.019 1267.61,-525.019 1267.61,-519.019 1267.61,-519.019 1267.61,-507.019 1267.61,-507.019 1267.61,-501.019 1273.61,-495.019 1279.61,-495.019"/>
<text text-anchor="middle" x="1311.07" y="-510.019" font-family="Helvetica,sans-Serif" font-size="10.00">test functions</text>
</g>
<!-- A21&#45;&gt;A22 -->
<g id="edge35" class="edge"><title>A21&#45;&gt;A22</title>
<path fill="none" stroke="black" d="M1060.91,-509.049C1119.06,-509.976 1203.43,-511.32 1257.53,-512.182"/>
<polygon fill="black" stroke="black" points="1267.59,-512.342 1257.52,-516.682 1262.59,-512.263 1257.6,-512.183 1257.6,-512.183 1257.6,-512.183 1262.59,-512.263 1257.67,-507.683 1267.59,-512.342 1267.59,-512.342"/>
</g>
<!-- A25 -->
<g id="node26" class="node"><title>A25</title>
<path fill="none" stroke="black" d="M1264.05,-391.019C1264.05,-391.019 1358.09,-391.019 1358.09,-391.019 1364.09,-391.019 1370.09,-397.019 1370.09,-403.019 1370.09,-403.019 1370.09,-415.019 1370.09,-415.019 1370.09,-421.019 1364.09,-427.019 1358.09,-427.019 1358.09,-427.019 1264.05,-427.019 1264.05,-427.019 1258.05,-427.019 1252.05,-421.019 1252.05,-415.019 1252.05,-415.019 1252.05,-403.019 1252.05,-403.019 1252.05,-397.019 1258.05,-391.019 1264.05,-391.019"/>
<text text-anchor="middle" x="1311.07" y="-406.019" font-family="Helvetica,sans-Serif" font-size="10.00">candidatelogout.php</text>
</g>
<!-- A21&#45;&gt;A25 -->
<g id="edge39" class="edge"><title>A21&#45;&gt;A25</title>
<path fill="none" stroke="black" d="M1060.93,-497.724C1079.17,-492.813 1098.33,-485.598 1114.13,-475.019 1124.92,-467.799 1121.22,-459.045 1132.13,-452.019 1141.66,-445.889 1195.74,-433.254 1241.81,-423.259"/>
<polygon fill="black" stroke="black" points="1251.8,-421.105 1242.97,-427.612 1246.91,-422.159 1242.02,-423.213 1242.02,-423.213 1242.02,-423.213 1246.91,-422.159 1241.07,-418.814 1251.8,-421.105 1251.8,-421.105"/>
</g>
<!-- A22&#45;&gt;A20 -->
<g id="edge27" class="edge"><title>A22&#45;&gt;A20</title>
<path fill="none" stroke="black" d="M1354.64,-517.922C1373.56,-521.054 1395.79,-526.077 1414.75,-534.019 1429.73,-540.292 1444.87,-549.819 1457.44,-558.81"/>
<polygon fill="black" stroke="black" points="1465.7,-564.902 1454.98,-562.589 1461.68,-561.935 1457.65,-558.967 1457.65,-558.967 1457.65,-558.967 1461.68,-561.935 1460.32,-555.345 1465.7,-564.902 1465.7,-564.902"/>
<text text-anchor="middle" x="1401.42" y="-537.019" font-family="Helvetica,sans-Serif" font-size="10.00">[error]</text>
</g>
<!-- A23&#45;&gt;A20 -->
<g id="edge28" class="edge"><title>A23&#45;&gt;A20</title>
<path fill="none" stroke="black" d="M813.899,-643.64C884.57,-642.89 1008.3,-640.659 1114.13,-634.019 1228.21,-626.862 1256.87,-624.663 1370.09,-609.019 1387.32,-606.638 1405.77,-603.06 1422.83,-599.313"/>
<polygon fill="black" stroke="black" points="1432.69,-597.096 1423.92,-603.68 1427.81,-598.193 1422.94,-599.29 1422.94,-599.29 1422.94,-599.29 1427.81,-598.193 1421.95,-594.899 1432.69,-597.096 1432.69,-597.096"/>
<text text-anchor="middle" x="1183.09" y="-635.019" font-family="Helvetica,sans-Serif" font-size="10.00">[error]</text>
</g>
<!-- A24 -->
<g id="node25" class="node"><title>A24</title>
<path fill="none" stroke="black" d="M970.765,-588.019C970.765,-588.019 1019.78,-588.019 1019.78,-588.019 1025.78,-588.019 1031.78,-594.019 1031.78,-600.019 1031.78,-600.019 1031.78,-612.019 1031.78,-612.019 1031.78,-618.019 1025.78,-624.019 1019.78,-624.019 1019.78,-624.019 970.765,-624.019 970.765,-624.019 964.765,-624.019 958.765,-618.019 958.765,-612.019 958.765,-612.019 958.765,-600.019 958.765,-600.019 958.765,-594.019 964.765,-588.019 970.765,-588.019"/>
<text text-anchor="middle" x="995.271" y="-603.019" font-family="Helvetica,sans-Serif" font-size="10.00">Verify.php</text>
</g>
<!-- A23&#45;&gt;A24 -->
<g id="edge37" class="edge"><title>A23&#45;&gt;A24</title>
<path fill="none" stroke="black" d="M813.799,-634.869C854.988,-628.285 909.821,-619.519 948.196,-613.384"/>
<polygon fill="black" stroke="black" points="958.558,-611.728 949.394,-617.75 953.621,-612.517 948.683,-613.307 948.683,-613.307 948.683,-613.307 953.621,-612.517 947.973,-608.863 958.558,-611.728 958.558,-611.728"/>
</g>
<!-- A24&#45;&gt;A9 -->
<g id="edge38" class="edge"><title>A24&#45;&gt;A9</title>
<path fill="none" stroke="black" d="M958.588,-603.009C902.8,-598.223 791.553,-588.356 697.373,-578.019 654.721,-573.338 644.105,-571.729 601.578,-566.019 587.519,-564.132 572.476,-562.032 558.132,-559.99"/>
<polygon fill="black" stroke="black" points="547.835,-558.518 558.371,-555.479 552.784,-559.226 557.734,-559.933 557.734,-559.933 557.734,-559.933 552.784,-559.226 557.097,-564.388 547.835,-558.518 547.835,-558.518"/>
</g>
<!-- A24&#45;&gt;A20 -->
<g id="edge29" class="edge"><title>A24&#45;&gt;A20</title>
<path fill="none" stroke="black" d="M1032.01,-604.346C1114.09,-600.505 1317.1,-591.004 1422.24,-586.083"/>
<polygon fill="black" stroke="black" points="1432.41,-585.607 1422.63,-590.57 1427.41,-585.841 1422.42,-586.075 1422.42,-586.075 1422.42,-586.075 1427.41,-585.841 1422.21,-581.58 1432.41,-585.607 1432.41,-585.607"/>
<text text-anchor="middle" x="1311.07" y="-596.019" font-family="Helvetica,sans-Serif" font-size="10.00">[error]</text>
</g>
<!-- A25&#45;&gt;A11 -->
<g id="edge40" class="edge"><title>A25&#45;&gt;A11</title>
<path fill="none" stroke="black" d="M1370.55,-399.363C1402.4,-394.104 1440.06,-387.886 1463.92,-383.947"/>
<polygon fill="black" stroke="black" points="1473.84,-382.31 1464.7,-388.379 1468.9,-383.124 1463.97,-383.939 1463.97,-383.939 1463.97,-383.939 1468.9,-383.124 1463.24,-379.499 1473.84,-382.31 1473.84,-382.31"/>
</g>
</g>
</svg>
